<?xml version="1.0" standalone="no"?>
<!DOCTYPE svg PUBLIC "-//W3C//DTD SVG 20010904//EN"
 "http://www.w3.org/TR/2001/REC-SVG-20010904/DTD/svg10.dtd">
<svg version="1.0" xmlns="http://www.w3.org/2000/svg"
 width="2396.000000pt" height="1971.000000pt" viewBox="0 0 2396.000000 1971.000000"
 preserveAspectRatio="xMidYMid meet">

<g transform="translate(0.000000,1971.000000) scale(0.100000,-0.100000)"
fill="#000000" stroke="none">
<path d="M6410 19684 c-308 -37 -405 -55 -414 -80 -3 -8 -11 -12 -17 -9 -7 5
-9 -4 -7 -26 2 -25 8 -34 20 -33 10 1 16 -3 15 -10 -1 -6 6 -10 15 -10 10 1
16 -2 13 -6 -6 -10 103 -82 115 -75 5 3 12 0 16 -6 5 -8 3 -9 -6 -4 -9 6 -11
4 -6 -4 5 -7 15 -10 23 -7 8 3 12 2 9 -3 -8 -12 21 -34 34 -26 6 4 9 1 8 -7
-2 -7 5 -12 14 -12 10 1 16 -2 13 -5 -2 -4 55 -52 128 -107 73 -54 186 -144
252 -198 66 -55 114 -91 106 -80 -8 10 45 -39 117 -111 73 -71 132 -132 132
-134 0 -2 -10 4 -22 15 -11 10 9 -19 46 -65 37 -46 65 -85 63 -88 -2 -2 -40 8
-83 21 -540 168 -815 215 -1294 220 -304 4 -429 -3 -681 -39 -525 -73 -1013
-221 -1549 -469 -690 -320 -1192 -741 -1575 -1321 -138 -208 -244 -403 -476
-875 -116 -233 -244 -481 -285 -550 -192 -322 -410 -552 -666 -701 -84 -49
-270 -130 -367 -159 -85 -26 -105 -43 -96 -78 7 -30 16 -37 107 -92 42 -25 73
-38 85 -34 14 5 15 4 4 -4 -11 -8 15 -24 110 -70 215 -104 438 -175 632 -201
103 -14 336 -14 432 0 42 6 77 10 79 8 2 -2 -5 -67 -14 -144 -10 -77 -21 -169
-24 -205 -3 -36 -9 -97 -12 -137 -7 -75 4 -207 37 -433 25 -167 40 -238 90
-410 58 -201 61 -209 76 -222 11 -9 0 -20 -54 -56 -142 -95 -277 -261 -334
-411 -49 -133 -67 -342 -40 -476 17 -85 59 -210 92 -277 15 -32 25 -58 21 -58
-4 0 -2 -4 4 -8 11 -7 69 -90 75 -107 2 -5 7 -9 12 -7 4 1 6 -1 5 -5 -1 -5 30
-39 70 -77 40 -38 70 -71 67 -74 -8 -8 67 -62 78 -55 6 4 7 1 2 -7 -6 -10 -4
-12 8 -7 10 4 16 2 14 -5 -3 -17 148 -95 248 -127 125 -40 236 -55 369 -48
128 7 233 27 320 62 54 22 61 23 69 9 5 -9 17 -24 27 -34 10 -10 17 -20 14
-22 -2 -2 10 -19 26 -36 16 -18 26 -32 24 -32 -13 0 91 -115 217 -241 138
-137 285 -255 426 -341 43 -26 84 -46 91 -43 7 3 10 1 7 -5 -3 -5 3 -14 14
-19 26 -14 34 -14 25 1 -4 7 -3 8 5 4 6 -4 9 -11 6 -15 -7 -12 251 -132 398
-185 70 -26 194 -65 275 -88 81 -22 149 -42 150 -44 2 -1 -45 -92 -106 -201
-301 -545 -678 -1304 -1124 -2268 -199 -428 -286 -630 -293 -678 -8 -53 15
-154 47 -206 13 -20 23 -41 24 -48 1 -6 16 -29 34 -51 l31 -39 -30 -77 c-87
-216 -121 -401 -102 -538 12 -84 43 -186 68 -224 7 -11 10 -24 6 -28 -5 -4 -1
-6 7 -4 9 2 15 -4 15 -14 0 -18 72 -98 88 -98 4 0 5 5 1 12 -4 7 -3 8 5 4 6
-4 9 -11 6 -16 -13 -21 119 -85 250 -122 109 -30 267 -31 342 -1 l52 21 106
-54 c59 -29 130 -62 158 -72 l50 -19 -2 -69 c-4 -142 -122 -1450 -161 -1784
-10 -91 -26 -241 -35 -335 -22 -238 -59 -538 -102 -825 -33 -226 -35 -251 -24
-326 14 -100 44 -194 81 -256 16 -25 26 -49 23 -52 -4 -3 -1 -6 5 -6 7 0 12
-6 12 -12 0 -7 30 -42 66 -79 l66 -66 -87 -53 c-231 -139 -363 -290 -411 -467
-22 -84 -20 -223 5 -302 11 -36 17 -69 14 -74 -3 -6 -2 -7 4 -4 9 6 50 -70 45
-86 -1 -5 3 -5 9 -1 8 5 10 2 6 -9 -3 -9 1 -21 11 -29 16 -12 16 -11 2 7 -8
11 5 2 28 -20 45 -42 57 -61 19 -29 -13 10 -1 -2 25 -28 97 -94 296 -171 483
-186 381 -31 789 103 1081 356 80 69 171 176 203 239 28 57 58 173 66 259 l7
72 81 6 c259 22 444 73 520 145 76 70 146 245 191 477 46 237 71 461 111 994
55 728 74 918 115 1121 22 106 41 159 64 178 13 11 19 8 40 -14 35 -37 52 -96
80 -275 28 -177 42 -305 56 -505 65 -976 121 -1439 205 -1706 24 -77 74 -188
97 -217 10 -12 10 -14 1 -8 -7 4 -13 5 -13 2 0 -11 87 -60 155 -88 39 -16 57
-26 40 -23 -16 3 -61 21 -98 40 -38 18 -63 27 -56 19 44 -53 266 -115 482
-136 l127 -12 0 -35 c0 -43 43 -207 70 -269 11 -24 17 -48 14 -53 -3 -5 0 -8
8 -7 7 2 13 -5 13 -14 0 -10 7 -23 15 -30 12 -11 12 -10 0 7 -8 11 13 -9 45
-44 33 -36 59 -69 58 -73 -2 -4 0 -7 5 -7 18 3 32 -2 32 -12 0 -5 -6 -7 -12
-3 -8 4 -10 3 -5 -2 5 -5 14 -9 20 -9 7 0 12 -5 12 -12 0 -15 75 -74 86 -67 5
3 8 0 7 -8 -2 -7 5 -12 14 -12 10 1 16 -2 13 -6 -8 -12 63 -53 76 -44 8 4 9 3
5 -4 -4 -6 6 -18 23 -27 34 -17 53 -20 31 -4 -13 9 -13 10 0 6 8 -2 15 -10 15
-18 0 -17 166 -88 288 -123 307 -89 645 -74 866 39 114 58 223 160 272 258 51
98 70 244 48 362 -15 81 -91 246 -106 231 -3 -3 4 -17 15 -33 31 -44 72 -170
70 -216 -1 -40 -1 -41 -5 -7 -6 54 -41 159 -68 208 -14 24 -22 48 -19 54 8 12
-26 49 -38 42 -4 -3 -7 -1 -6 3 4 13 -142 154 -152 148 -5 -3 -10 -2 -12 3 -1
4 -28 23 -58 42 -30 19 -61 40 -68 48 -8 7 -27 19 -43 28 l-30 15 49 44 c141
127 221 298 222 473 0 35 -9 120 -20 190 -52 339 -135 1086 -215 1927 -37 390
-105 1169 -102 1170 1 1 29 12 62 25 97 38 254 118 340 175 105 68 175 129
230 199 62 80 78 129 73 218 -5 77 -43 209 -354 1206 -79 255 -144 465 -144
468 0 3 21 -13 46 -35 26 -22 50 -38 54 -36 5 3 32 -21 60 -54 53 -61 191
-185 156 -141 -11 14 9 -5 45 -41 57 -59 148 -141 369 -330 80 -68 295 -240
372 -298 35 -26 62 -40 70 -35 7 4 10 4 6 -1 -9 -9 9 -35 24 -35 5 0 6 6 2 13
-4 7 -3 9 2 4 5 -5 9 -14 9 -20 0 -7 8 -11 18 -11 9 1 15 -2 12 -6 -7 -11 92
-73 105 -65 6 4 9 1 8 -5 -7 -28 283 -160 349 -160 15 0 32 -15 52 -44 17 -24
37 -46 46 -50 9 -3 13 -10 10 -16 -3 -5 27 -42 67 -81 40 -39 73 -77 73 -83 0
-6 5 -11 12 -11 7 0 18 -6 25 -13 6 -6 8 -12 4 -12 -5 0 14 -18 43 -41 29 -23
56 -37 62 -33 8 4 9 3 5 -5 -11 -18 143 -87 225 -101 84 -14 163 -3 245 34 50
23 60 25 107 14 68 -14 209 -4 317 22 81 20 85 20 97 3 7 -10 20 -27 30 -37
12 -13 13 -17 3 -11 -8 4 1 -7 20 -25 19 -18 26 -26 15 -19 -11 7 -2 -5 21
-27 22 -21 31 -32 20 -24 -17 12 -16 10 3 -13 25 -27 48 -37 35 -15 -4 8 -3
10 2 5 5 -5 9 -14 9 -20 0 -17 90 -74 154 -98 108 -40 189 -52 356 -53 203 0
458 41 1028 165 104 23 190 39 192 37 7 -6 -95 -341 -181 -598 -115 -341 -204
-544 -310 -708 -77 -119 -131 -172 -282 -279 -184 -131 -271 -202 -383 -315
-189 -187 -282 -354 -309 -553 -21 -153 30 -348 131 -507 17 -26 32 -55 33
-64 2 -10 16 -28 32 -42 16 -13 22 -21 14 -16 -8 4 27 -32 77 -80 51 -49 91
-92 88 -96 -5 -8 24 -25 38 -21 5 1 6 -3 3 -8 -8 -12 83 -83 95 -75 5 3 8 0 7
-8 -2 -7 5 -13 14 -13 9 0 20 -4 25 -9 5 -5 2 -6 -6 -1 -10 6 -12 4 -7 -4 5
-7 14 -10 22 -7 7 3 16 0 20 -6 5 -7 2 -8 -7 -4 -8 4 -3 -2 11 -13 14 -11 31
-19 38 -16 7 3 10 1 7 -5 -8 -12 82 -63 96 -54 7 4 9 3 5 -4 -8 -14 30 -36 46
-26 7 4 8 3 4 -5 -9 -13 211 -123 384 -191 142 -56 369 -133 458 -155 l72 -17
0 -43 c0 -23 -9 -96 -19 -161 -25 -155 -59 -388 -71 -489 -5 -44 -23 -183 -39
-308 -43 -324 -48 -437 -26 -512 10 -33 19 -64 20 -70 0 -5 6 -9 12 -8 6 1 19
-7 29 -19 19 -21 19 -21 -6 -9 -22 11 -22 9 5 -14 102 -86 346 -98 612 -29
136 35 242 81 280 121 109 114 253 502 422 1137 28 104 53 191 55 193 2 2 97
-2 211 -8 171 -11 208 -16 212 -29 2 -8 9 -24 15 -34 6 -11 30 -92 53 -180 24
-89 60 -215 80 -281 21 -66 53 -169 71 -230 30 -100 85 -249 128 -348 9 -20
13 -37 9 -37 -5 0 -3 -4 3 -8 6 -4 19 -23 29 -42 9 -19 24 -43 32 -52 8 -9 12
-22 8 -28 -3 -6 -1 -9 7 -8 7 2 13 -5 13 -14 1 -61 208 -147 445 -183 281 -43
466 10 526 150 33 77 17 265 -77 940 -27 198 -51 366 -52 374 -2 11 29 18 133
32 680 87 1263 314 1580 616 153 146 251 302 286 460 22 100 15 261 -15 356
l-22 68 48 43 c135 122 154 297 53 497 -28 55 -95 156 -126 189 l-24 26 22 54
c17 43 22 77 22 150 0 85 -3 103 -33 175 -74 180 -426 864 -438 852 -2 -3 15
-40 38 -84 23 -43 38 -73 32 -68 -17 17 -97 169 -85 161 17 -10 15 -1 -8 45
-12 22 -25 37 -30 34 -5 -3 -12 0 -16 6 -4 8 -3 9 4 5 7 -4 12 -4 12 1 -1 21
-289 518 -301 518 -7 0 -14 7 -16 15 -4 13 -3 13 6 0 24 -33 9 6 -25 66 -20
35 -40 62 -44 59 -5 -3 -12 0 -16 6 -4 8 -3 9 4 5 19 -11 14 3 -19 60 -18 32
-35 51 -41 48 -7 -4 -8 -2 -4 4 9 14 -62 144 -74 137 -5 -3 -12 0 -16 6 -4 8
-3 9 4 5 18 -11 15 0 -19 59 -17 30 -35 53 -39 50 -5 -3 -12 0 -16 6 -4 8 -3
9 4 5 15 -9 15 -1 1 25 -5 11 -14 17 -19 14 -5 -3 -12 0 -16 6 -4 8 -3 9 4 5
20 -12 13 5 -34 86 -26 45 -50 75 -56 71 -7 -3 -8 -1 -4 6 4 6 -2 28 -14 48
-11 19 -20 36 -18 38 2 1 39 14 83 30 219 76 480 235 643 390 l97 92 35 -23
c51 -35 179 -81 278 -100 111 -21 266 -14 372 16 279 80 504 302 582 576 41
145 26 360 -33 477 l-20 38 64 87 c145 197 238 346 330 524 224 436 339 865
354 1321 4 131 9 186 17 183 91 -40 283 -114 368 -141 772 -250 1394 -167
1869 248 397 347 694 1017 779 1755 11 94 11 105 -5 122 -20 23 -52 25 -76 7
-9 -7 -31 -37 -49 -67 -288 -474 -678 -570 -1024 -251 -21 20 -35 29 -31 21 4
-8 -8 1 -28 19 -38 36 -47 48 -24 34 6 -4 -10 20 -38 54 -27 33 -54 58 -59 55
-5 -3 -6 -1 -3 5 8 12 -41 79 -54 75 -6 -1 -8 2 -5 7 3 5 -16 45 -42 88 -75
119 -152 270 -242 468 -113 249 -255 525 -348 680 -86 143 -200 315 -208 315
-3 0 -2 -4 1 -10 10 -16 -1 -11 -16 7 -10 11 -10 14 -1 9 18 -11 15 9 -5 25
-14 12 -16 12 -8 0 5 -10 4 -12 -4 -7 -6 4 -9 11 -6 16 8 13 -36 71 -48 63 -6
-3 -7 -1 -3 5 7 12 -90 130 -128 156 -14 9 -25 22 -23 28 1 7 -5 13 -13 13 -8
0 -14 6 -13 13 2 7 -3 11 -10 9 -6 -1 -11 4 -10 10 2 7 0 12 -5 11 -13 -2 -42
14 -42 24 0 5 5 6 12 2 7 -4 8 -3 4 5 -4 6 -11 9 -16 6 -4 -3 -36 25 -70 62
-74 82 -139 135 -153 126 -5 -3 -7 -1 -4 4 6 10 -90 83 -109 83 -4 0 -12 6
-18 14 -17 23 -390 208 -445 222 -9 2 -68 20 -131 40 -168 53 -378 96 -545
110 -33 3 -66 8 -74 10 -45 14 -285 14 -385 0 -398 -58 -645 -233 -845 -598
-24 -43 -44 -78 -46 -78 -1 0 -29 16 -60 35 -32 19 -62 32 -66 29 -5 -3 -9 0
-9 5 0 6 -3 10 -7 9 -5 -1 -42 8 -83 21 -100 31 -267 35 -355 7 -202 -62 -359
-203 -440 -394 -19 -46 -35 -90 -35 -98 0 -27 -25 -24 -160 21 -74 25 -146 48
-160 50 -14 3 -68 18 -120 34 -236 71 -549 116 -802 116 -54 0 -98 2 -98 5 0
17 -447 -27 -615 -61 -584 -117 -1220 -411 -1685 -779 -132 -104 -424 -396
-515 -515 -376 -491 -574 -1034 -626 -1712 -7 -101 -7 -148 0 -162 7 -12 7
-22 2 -26 -13 -8 -4 -233 15 -380 14 -108 32 -287 30 -292 -1 -1 -46 -9 -101
-18 -124 -19 -179 -37 -276 -86 -255 -132 -396 -415 -360 -722 11 -94 72 -289
98 -315 7 -8 11 -18 8 -23 -4 -5 -2 -9 2 -9 5 0 24 -21 41 -46 18 -25 27 -43
20 -39 -7 4 12 -16 42 -44 30 -28 54 -55 53 -60 -2 -6 3 -8 11 -5 7 3 19 -3
27 -13 13 -17 13 -17 -6 -3 -20 15 -20 14 -1 -8 20 -23 42 -31 30 -9 -4 7 -3
9 2 4 5 -5 9 -14 9 -19 0 -6 6 -13 14 -16 9 -3 11 0 6 9 -5 8 -4 11 1 6 5 -5
9 -14 9 -20 0 -19 162 -94 255 -119 65 -17 114 -22 206 -23 l122 0 37 -80 c21
-44 54 -114 73 -155 19 -41 34 -77 33 -79 -2 -2 1 -7 6 -10 14 -9 115 -161
107 -161 -4 0 3 -8 14 -19 12 -10 19 -21 15 -24 -3 -4 2 -9 11 -13 9 -3 16
-12 16 -20 0 -22 361 -376 377 -370 8 3 11 2 8 -3 -7 -12 121 -104 134 -97 5
4 13 1 17 -5 5 -8 3 -9 -6 -4 -9 6 -11 4 -6 -4 5 -7 14 -10 22 -7 8 3 13 0 11
-7 -1 -7 6 -11 15 -11 10 1 16 -2 13 -6 -12 -20 350 -211 578 -306 102 -42
114 -49 85 -51 -18 -1 -199 -7 -403 -13 -203 -6 -444 -15 -535 -20 -368 -20
-538 -30 -605 -35 -38 -2 -108 -7 -155 -10 -246 -16 -343 -51 -463 -164 l-72
-68 -77 6 c-42 4 -79 9 -81 11 -2 3 -13 21 -25 41 -12 20 -30 43 -40 50 -16
13 -16 12 -3 -6 8 -11 -8 5 -35 35 -27 30 -48 58 -46 63 1 5 -2 6 -7 2 -6 -3
-20 9 -33 26 -13 17 -55 56 -95 85 -71 53 -72 54 -62 86 12 42 3 95 -22 137
-24 40 -35 36 -14 -5 8 -16 14 -40 14 -54 -1 -23 -2 -22 -8 5 -4 17 -16 45
-25 64 -10 18 -13 30 -7 27 6 -4 11 -4 11 1 0 11 -122 148 -130 146 -4 -1 -27
19 -51 45 l-44 47 45 -40 45 -40 -44 47 c-25 26 -47 46 -49 43 -6 -6 -58 57
-54 67 1 4 -1 7 -5 6 -14 -2 -43 14 -43 24 0 5 5 6 12 2 7 -4 8 -3 4 5 -4 6
-11 9 -15 6 -9 -5 -54 39 -47 46 3 3 -52 58 -122 124 -70 66 -248 245 -397
397 -148 152 -272 275 -276 273 -5 -4 -121 110 -235 230 -17 19 -21 21 -9 5
18 -22 17 -22 -12 4 -18 16 -30 33 -27 38 3 5 1 7 -4 6 -5 -2 -68 54 -140 124
-72 71 -125 125 -119 121 6 -3 7 -1 3 6 -4 6 -11 9 -15 6 -5 -2 -62 50 -127
117 -66 67 -113 113 -105 103 19 -25 -143 130 -178 170 -64 75 -144 154 -152
150 -9 -6 -6 -8 -127 123 -52 56 -97 100 -101 99 -12 -3 -220 196 -214 205 2
5 0 7 -5 6 -5 -2 -31 18 -58 43 -60 56 -228 239 -223 243 2 1 45 17 94 35 141
51 478 222 610 308 341 224 596 486 786 807 32 54 59 102 61 106 2 4 37 -1 78
-11 41 -11 127 -22 190 -25 338 -17 644 115 855 369 267 322 317 746 128 1085
-19 35 -37 61 -40 58 -8 -8 -33 13 -33 27 0 6 7 2 15 -9 9 -12 14 -14 15 -6 0
8 -45 59 -101 114 l-100 101 35 131 c86 320 156 672 193 976 25 206 25 797 0
985 -63 467 -200 883 -415 1260 -54 95 -191 305 -198 305 -6 0 -5 -1 66 -110
65 -98 78 -120 63 -105 -23 22 -136 201 -136 215 0 19 -17 41 -27 35 -5 -3
-12 0 -16 6 -4 8 -3 9 4 5 18 -11 14 10 -5 25 -14 12 -16 12 -8 0 5 -10 4 -12
-4 -7 -6 4 -9 12 -5 17 8 13 -16 40 -29 32 -5 -3 -7 -1 -4 5 10 15 -90 134
-204 240 -54 52 -97 97 -95 101 3 4 -18 30 -47 57 l-52 49 50 -55 50 -55 -57
54 c-31 30 -55 58 -52 63 3 5 2 7 -3 6 -5 -2 -40 29 -79 67 -62 62 -271 235
-294 243 -5 2 -26 19 -46 38 l-38 34 25 26 c41 46 171 138 254 181 270 139
562 166 883 82 171 -46 177 -46 198 -15 22 35 7 73 -36 88 -17 5 -30 13 -30
17 0 16 -63 80 -73 74 -5 -3 -7 -1 -4 4 10 16 -305 262 -325 255 -5 -1 -8 3
-8 8 0 6 -6 10 -14 10 -8 0 -17 7 -20 16 -3 8 -10 12 -16 9 -6 -3 -13 1 -16 9
-3 9 -10 13 -15 10 -5 -3 -9 0 -9 6 0 6 -4 9 -8 6 -5 -3 -18 2 -28 12 -11 9
-57 37 -104 61 -47 25 -88 48 -91 53 -3 5 -14 10 -25 12 -10 2 -59 22 -108 45
-171 79 -390 138 -621 166 -139 17 -252 12 -430 -20 -211 -38 -442 -143 -655
-298 l-75 -55 -42 122 c-60 172 -177 394 -240 456 -9 8 -2 -5 14 -30 39 -59
45 -70 40 -70 -9 0 -72 104 -72 120 0 8 -6 14 -13 12 -8 -1 -11 2 -7 7 6 11
-172 195 -245 252 -100 79 -273 183 -284 172 -3 -4 -6 -1 -6 5 0 7 -7 12 -15
12 -9 0 -46 14 -83 31 -142 64 -331 113 -577 149 -166 24 -454 26 -635 4z
m680 -110 c314 -41 588 -149 820 -324 101 -77 252 -237 322 -341 106 -158 194
-360 228 -522 6 -32 22 -70 35 -85 23 -26 24 -26 56 -10 19 9 73 48 122 87
368 297 790 398 1262 301 304 -63 633 -225 967 -477 114 -85 125 -99 77 -89
-202 43 -443 30 -640 -34 -181 -60 -387 -187 -507 -314 -47 -50 -53 -60 -50
-93 3 -33 11 -42 93 -101 397 -286 764 -664 1008 -1037 356 -548 527 -1148
527 -1847 1 -410 -50 -780 -176 -1299 -31 -124 -59 -231 -63 -237 -6 -9 -31
-4 -97 22 -179 69 -355 99 -498 85 -43 -4 -84 -5 -91 -3 -17 7 -20 22 -40 179
-9 72 -27 193 -40 270 -13 77 -20 143 -17 146 6 5 155 28 200 31 19 2 62 45
62 63 0 24 -38 55 -67 55 -16 0 -55 -5 -88 -10 -88 -15 -277 -13 -377 5 -326
57 -666 258 -972 576 -107 110 -168 183 -298 354 -57 75 -91 91 -122 60 -24
-25 -20 -90 15 -206 76 -259 237 -516 471 -753 65 -66 117 -120 116 -121 -12
-7 -456 17 -538 29 -413 65 -751 231 -1000 492 -114 119 -208 258 -260 381
-23 55 -44 69 -85 59 -41 -10 -47 -53 -25 -175 79 -439 278 -813 594 -1119 85
-81 120 -122 108 -122 -71 0 -359 35 -462 56 -751 154 -1369 660 -1731 1419
-111 234 -126 280 -133 430 -13 239 -60 499 -97 536 -32 32 -70 23 -88 -22 -7
-20 -4 -45 10 -100 34 -129 50 -275 50 -454 0 -317 -61 -583 -195 -860 -112
-229 -255 -423 -452 -615 -139 -135 -260 -231 -434 -345 -114 -75 -316 -195
-328 -195 -2 0 -1 60 3 133 31 543 -58 1001 -281 1449 -36 72 -62 93 -100 84
-33 -9 -39 -26 -59 -149 -42 -272 -153 -522 -327 -735 -157 -191 -403 -347
-674 -425 -170 -49 -281 -66 -514 -78 -245 -13 -244 -13 -257 -41 -25 -55 24
-88 128 -88 49 0 59 -3 64 -20 3 -11 4 -28 1 -38 -3 -9 -10 -133 -16 -275 -5
-142 -12 -263 -15 -268 -4 -5 -35 -9 -70 -9 -102 0 -212 -19 -329 -57 -129
-41 -118 -47 -166 85 -145 401 -179 901 -90 1342 57 281 138 495 301 785 27
50 21 91 -17 105 -20 8 -32 6 -52 -9 -55 -39 -188 -310 -268 -545 -24 -72 -52
-138 -62 -149 -51 -51 -411 -61 -616 -17 -188 40 -398 117 -563 206 -46 25
-83 46 -83 48 0 2 54 27 121 56 218 95 388 210 547 370 203 204 374 464 569
870 394 816 525 1037 822 1385 132 155 241 258 476 451 151 124 472 321 695
427 648 308 1210 471 1820 528 190 18 636 15 817 -5 379 -41 718 -124 985
-242 142 -63 155 -67 182 -60 41 10 41 49 3 130 -104 219 -443 554 -885 876
-65 47 -129 92 -142 101 -14 9 -23 19 -20 23 4 3 51 13 105 21 214 35 563 39
795 9z m-1096 -10 c3 -8 2 -12 -4 -9 -6 3 -10 10 -10 16 0 14 7 11 14 -7z
m2376 -674 c6 -11 8 -20 6 -20 -3 0 -10 9 -16 20 -6 11 -8 20 -6 20 3 0 10 -9
16 -20z m40 -74 c0 -12 -5 -7 -19 24 -11 24 -11 24 3 6 9 -11 16 -24 16 -30z
m109 -266 c0 -21 -2 -20 -13 10 -7 19 -16 49 -19 65 -5 26 -4 24 13 -10 10
-22 19 -51 19 -65z m2104 -517 c-7 -2 -21 -2 -30 0 -10 3 -4 5 12 5 17 0 24
-2 18 -5z m250 0 c-7 -2 -21 -2 -30 0 -10 3 -4 5 12 5 17 0 24 -2 18 -5z m64
-9 c-3 -3 -12 -4 -19 -1 -8 3 -5 6 6 6 11 1 17 -2 13 -5z m250 -60 c-3 -3 -12
-4 -19 -1 -8 3 -5 6 6 6 11 1 17 -2 13 -5z m-77 -1605 c12 -23 20 -43 18 -45
-3 -2 -14 17 -26 41 -27 56 -20 60 8 4z m50 -103 c0 -12 -5 -7 -19 24 -11 24
-11 24 3 6 9 -11 16 -24 16 -30z m105 -231 c20 -48 35 -89 32 -91 -2 -2 -19
33 -37 79 -18 45 -48 112 -67 149 -18 37 -33 71 -33 75 1 13 67 -120 105 -212z
m122 -375 c-3 -15 -68 196 -66 215 1 6 16 -37 35 -95 19 -58 33 -112 31 -120z
m10 -42 c-3 -8 -6 -5 -6 6 -1 11 2 17 5 13 3 -3 4 -12 1 -19z m38 -144 c33
-162 55 -322 60 -424 2 -47 1 -69 -1 -50 -3 19 -14 106 -24 194 -11 87 -29
202 -41 255 -31 147 -32 156 -25 150 3 -3 17 -60 31 -125z m-5605 -594 c218
-471 589 -897 1015 -1165 370 -233 841 -365 1316 -369 161 -1 179 1 198 18 42
38 29 58 -91 149 -196 147 -370 343 -499 561 -83 141 -193 406 -169 406 6 0
10 -3 10 -8 0 -14 105 -128 186 -201 363 -333 915 -499 1554 -470 150 7 155 8
177 33 31 36 18 60 -64 126 -197 158 -386 383 -505 600 -54 99 -59 125 -12 70
208 -246 505 -485 747 -604 128 -62 311 -122 445 -144 62 -11 114 -21 116 -23
6 -6 54 -300 71 -434 58 -467 67 -1090 20 -1405 -65 -437 -265 -822 -592
-1141 -702 -685 -1839 -989 -3793 -1016 -547 -7 -887 12 -1259 72 -424 69
-732 162 -1046 315 -330 161 -579 350 -783 595 -199 238 -346 535 -411 832
-78 356 -123 998 -102 1466 6 145 15 276 19 292 l8 30 150 22 c228 33 399 81
563 158 397 189 661 503 796 947 22 71 42 125 46 120 4 -4 26 -56 48 -115 154
-404 207 -881 145 -1295 -20 -132 -16 -154 25 -160 32 -5 65 10 231 101 305
169 565 362 771 574 303 312 492 658 589 1076 13 54 26 95 29 90 4 -4 27 -51
51 -103z m5677 8 c-2 -13 -4 -5 -4 17 -1 22 1 32 4 23 2 -10 2 -28 0 -40z m10
-235 c-2 -21 -4 -4 -4 37 0 41 2 58 4 38 2 -21 2 -55 0 -75z m-11367 -99 c0
-2 -9 0 -20 6 -11 6 -20 13 -20 16 0 2 9 0 20 -6 11 -6 20 -13 20 -16z m11357
-76 c-2 -13 -4 -5 -4 17 -1 22 1 32 4 23 2 -10 2 -28 0 -40z m8403 26 c827
-89 1390 -470 1866 -1261 109 -181 231 -419 364 -708 187 -408 338 -644 526
-825 145 -140 250 -205 392 -241 224 -57 448 21 662 231 33 33 62 60 64 60 14
0 -115 -481 -169 -625 -50 -138 -182 -402 -254 -510 -264 -397 -606 -627
-1026 -691 -129 -20 -367 -19 -515 1 -148 21 -363 73 -526 129 -154 53 -369
142 -383 160 -6 7 -22 87 -35 180 -28 185 -67 347 -128 536 -187 577 -592
1166 -1025 1492 -51 38 -93 74 -93 80 0 5 16 33 34 62 88 132 133 289 123 426
-25 317 -267 577 -586 630 -95 16 -195 6 -301 -30 -47 -15 -89 -26 -95 -23 -7
2 -24 36 -40 76 -15 39 -47 101 -71 137 -24 36 -44 76 -44 89 0 37 88 194 158
281 176 221 411 341 702 359 130 8 226 4 400 -15z m-19380 -124 c8 -5 11 -10
5 -10 -5 0 -17 5 -25 10 -8 5 -10 10 -5 10 6 0 17 -5 25 -10z m110 -35 c19 -7
28 -13 20 -13 -8 0 -31 6 -50 13 -19 7 -28 13 -20 13 8 0 31 -6 50 -13z
m10857 -22 c-3 -10 -5 -4 -5 12 0 17 2 24 5 18 2 -7 2 -21 0 -30z m-10752 -7
c28 -8 41 -14 30 -14 -21 0 -107 25 -90 27 6 0 33 -6 60 -13z m223 -43 c-10
-2 -26 -2 -35 0 -10 3 -2 5 17 5 19 0 27 -2 18 -5z m95 -10 c-13 -2 -35 -2
-50 0 -16 2 -5 4 22 4 28 0 40 -2 28 -4z m10424 -30 c-3 -10 -5 -4 -5 12 0 17
2 24 5 18 2 -7 2 -21 0 -30z m-27 -230 c-12 -81 -24 -150 -27 -153 -3 -3 -3
11 -1 30 3 19 14 96 24 170 10 74 20 127 22 118 2 -9 -6 -84 -18 -165z m6884
-75 c134 -57 249 -176 295 -303 63 -180 34 -389 -74 -530 -58 -76 -84 -95
-127 -95 -13 0 -63 30 -113 66 -212 154 -487 322 -638 389 -67 29 -92 61 -83
107 16 85 102 222 161 257 l34 20 -11 -27 c-7 -15 -32 -56 -56 -91 -47 -68
-59 -95 -73 -150 -9 -41 -5 -46 91 -92 170 -83 433 -244 598 -367 46 -34 90
-62 98 -62 26 0 104 93 139 165 69 144 69 264 1 409 -70 148 -152 216 -351
292 -99 38 -104 47 -20 42 43 -3 93 -15 129 -30z m-230 -18 c14 -5 43 -26 66
-46 66 -60 85 -164 44 -245 -21 -41 -90 -97 -129 -105 -108 -20 -196 21 -241
112 -47 96 -19 201 70 262 41 27 57 32 106 32 32 0 70 -4 84 -10z m-6695 -154
c-6 -42 -14 -75 -16 -72 -3 2 1 39 8 80 6 42 14 75 16 72 3 -2 -1 -39 -8 -80z
m4986 -86 c672 -48 1366 -325 1910 -765 55 -45 105 -84 111 -88 7 -4 63 -14
125 -23 473 -65 949 -299 1293 -633 398 -388 689 -879 841 -1421 111 -399 128
-869 44 -1285 -78 -391 -242 -773 -495 -1155 -45 -69 -98 -143 -117 -165 l-34
-40 -64 60 c-117 109 -247 182 -399 224 -95 26 -95 27 -98 61 -2 19 4 86 12
149 9 64 21 154 26 200 5 47 14 89 19 94 5 5 61 -2 132 -17 160 -33 307 -51
341 -43 32 8 46 46 30 82 -12 26 -30 31 -237 65 -545 88 -1033 358 -1350 745
-142 174 -200 263 -295 455 -87 175 -158 372 -186 518 -18 95 -35 122 -74 122
-51 0 -67 -30 -75 -136 -29 -389 142 -896 451 -1336 30 -42 54 -79 54 -82 0
-12 -216 104 -309 165 -256 171 -482 420 -674 744 -149 252 -274 556 -368 894
-41 148 -104 444 -114 541 -3 30 -8 65 -11 77 -11 56 -80 73 -110 27 -16 -24
-16 -33 -1 -142 76 -537 307 -1180 563 -1564 36 -55 64 -102 61 -104 -3 -3
-31 1 -64 9 -32 9 -107 28 -168 43 -328 81 -613 213 -842 390 -126 98 -159
129 -251 239 -190 227 -320 492 -392 800 -71 305 -79 727 -19 1056 21 120 17
144 -26 155 -58 14 -81 -22 -105 -163 -25 -145 -41 -354 -39 -517 1 -133 0
-136 -31 -194 -87 -164 -349 -466 -538 -621 -207 -169 -482 -323 -720 -401
-98 -32 -412 -104 -418 -97 -1 1 16 34 38 72 91 158 145 276 187 405 62 193
100 418 102 597 1 111 -13 143 -61 143 -51 0 -62 -32 -71 -193 -11 -202 -45
-384 -100 -534 -26 -71 -94 -141 -212 -217 -172 -112 -263 -145 -422 -152
-138 -6 -152 -9 -166 -35 -31 -59 22 -96 140 -100 48 -1 70 -6 67 -13 -2 -6
-29 -71 -60 -144 -58 -139 -143 -383 -171 -493 -20 -76 -29 -89 -63 -89 -38 0
-100 21 -118 41 -22 24 -51 218 -65 428 -37 596 88 1197 348 1671 154 280 407
591 642 788 289 244 529 398 858 551 360 168 671 268 997 321 133 22 465 48
546 43 25 -1 113 -7 195 -13z m-5008 -22 c-3 -8 -6 -5 -6 6 -1 11 2 17 5 13 3
-3 4 -12 1 -19z m-23 -112 c-3 -21 -8 -35 -11 -32 -2 2 -1 20 3 40 3 21 8 35
11 32 2 -2 1 -20 -3 -40z m10394 -69 c57 -86 72 -113 40 -72 -31 40 -99 145
-93 145 3 0 26 -33 53 -73z m-2447 2 c133 -56 239 -163 297 -303 22 -54 25
-76 26 -186 1 -81 -4 -142 -13 -175 -17 -57 -69 -151 -99 -179 -28 -24 -63
-16 -177 44 -169 90 -422 182 -633 230 -29 7 -62 20 -73 29 -21 17 -21 17 25
82 80 116 114 204 141 372 5 29 14 43 38 57 45 28 50 25 22 -15 -26 -39 -29
-53 -44 -165 -6 -45 -23 -103 -41 -144 -32 -70 -77 -146 -94 -158 -6 -4 1 -9
15 -12 104 -21 148 -33 248 -63 136 -41 300 -107 431 -174 112 -57 117 -56
168 39 47 88 66 189 52 271 -32 185 -138 323 -310 404 -47 23 -87 41 -90 42
-3 0 -18 9 -35 18 l-30 18 61 -4 c33 -3 85 -15 115 -28z m-7964 -1 c-3 -8 -6
-5 -6 6 -1 11 2 17 5 13 3 -3 4 -12 1 -19z m7789 -29 c85 -52 103 -175 35
-253 -45 -51 -145 -64 -206 -26 -55 34 -78 81 -73 149 5 67 31 110 80 134 47
23 123 22 164 -4z m-7799 -11 c-3 -8 -6 -5 -6 6 -1 11 2 17 5 13 3 -3 4 -12 1
-19z m10524 -123 l10 -20 -16 20 c-9 11 -21 29 -26 40 l-10 20 16 -20 c9 -11
21 -29 26 -40z m-10554 3 c-3 -8 -6 -5 -6 6 -1 11 2 17 5 13 3 -3 4 -12 1 -19z
m10626 -125 c68 -123 79 -143 73 -143 -2 0 -20 28 -39 63 -18 34 -49 88 -66
120 -18 31 -31 57 -28 57 3 0 30 -44 60 -97z m-10656 15 c-3 -8 -6 -5 -6 6 -1
11 2 17 5 13 3 -3 4 -12 1 -19z m-501 -63 c450 -67 726 -358 725 -764 0 -115
-19 -217 -60 -330 -132 -360 -450 -581 -841 -583 -101 0 -245 16 -270 32 -9 5
1 45 35 151 25 79 59 209 75 288 24 120 32 148 51 162 29 22 141 55 233 69 77
12 257 13 326 1 77 -12 122 16 105 68 -12 37 -94 53 -274 52 -127 -1 -253 -19
-344 -50 l-59 -21 7 218 c4 130 2 311 -4 451 -9 164 -9 237 -1 245 26 26 161
31 296 11z m11333 -290 c0 -5 -8 6 -19 25 -11 19 -19 40 -19 45 0 6 8 -6 19
-25 11 -19 19 -39 19 -45z m-10609 -55 c11 -22 18 -40 15 -40 -2 0 -14 18 -25
40 -11 22 -18 40 -15 40 2 0 14 -18 25 -40z m10689 -115 c0 -5 -13 15 -29 45
-16 30 -29 60 -29 65 0 6 13 -15 29 -45 16 -30 29 -59 29 -65z m-10610 -80
c22 -94 38 -265 27 -281 -9 -11 -11 0 -10 43 2 82 -20 215 -50 303 -14 41 -26
77 -25 80 2 13 48 -101 58 -145z m-9385 110 c19 -4 24 -13 30 -51 3 -26 6 -74
6 -108 0 -127 60 -712 76 -738 7 -11 1 -10 -86 8 -108 22 -328 20 -448 -5
-112 -24 -142 -40 -142 -80 0 -57 20 -60 190 -27 146 28 361 19 467 -20 38
-14 42 -19 53 -67 24 -101 78 -254 135 -381 34 -74 54 -131 49 -136 -17 -16
-169 -50 -268 -59 -108 -11 -231 -1 -331 26 -91 24 -232 95 -310 155 -206 159
-347 451 -346 717 1 418 320 717 826 774 30 3 53 2 99 -8z m20045 -140 c0 -5
-11 10 -24 35 -13 25 -24 50 -24 55 0 6 11 -10 24 -35 13 -25 24 -49 24 -55z
m60 -130 c0 -5 -11 10 -24 35 -13 25 -24 50 -24 55 0 6 11 -10 24 -35 13 -25
24 -49 24 -55z m79 -150 c34 -66 55 -111 46 -100 -19 24 -130 244 -116 230 5
-5 37 -64 70 -130z m-10781 -47 c-2 -13 -4 -5 -4 17 -1 22 1 32 4 23 2 -10 2
-28 0 -40z m-10 -65 c-3 -10 -5 -4 -5 12 0 17 2 24 5 18 2 -7 2 -21 0 -30z
m10873 -33 c6 -11 8 -20 6 -20 -3 0 -10 9 -16 20 -6 11 -8 20 -6 20 3 0 10 -9
16 -20z m-10883 -12 c-3 -8 -6 -5 -6 6 -1 11 2 17 5 13 3 -3 4 -12 1 -19z
m10928 -60 c16 -24 22 -38 14 -31 -15 12 -53 73 -46 73 2 0 17 -19 32 -42z
m1402 -135 c-3 -10 -5 -2 -5 17 0 19 2 27 5 18 2 -10 2 -26 0 -35z m-10 -80
c-3 -10 -5 -2 -5 17 0 19 2 27 5 18 2 -10 2 -26 0 -35z m-13 -92 c-4 -28 -9
-50 -11 -47 -3 3 -2 28 2 56 4 28 9 49 12 47 2 -3 1 -28 -3 -56z m-17 -93 c-3
-7 -5 -2 -5 12 0 14 2 19 5 13 2 -7 2 -19 0 -25z m-10 -55 c-3 -10 -5 -4 -5
12 0 17 2 24 5 18 2 -7 2 -21 0 -30z m-8293 -278 c51 -222 189 -531 313 -704
80 -111 246 -288 348 -370 307 -247 734 -423 1214 -501 70 -12 77 -15 115 -58
260 -294 536 -486 854 -596 116 -40 147 -45 180 -27 41 22 29 59 -54 161 -201
249 -343 494 -457 795 -41 108 -64 195 -52 195 2 0 30 -55 63 -122 248 -519
665 -904 1217 -1123 66 -26 124 -51 128 -55 9 -8 -6 -168 -34 -365 -58 -399
-194 -902 -305 -1130 -112 -232 -296 -450 -504 -597 -169 -120 -415 -231 -650
-291 -419 -109 -961 -114 -1580 -16 -410 65 -973 193 -1380 313 -728 215
-1264 523 -1595 918 -284 338 -423 742 -392 1143 40 528 218 1211 428 1639 31
64 38 72 84 90 28 12 88 40 134 63 46 24 86 42 87 40 2 -2 -20 -32 -49 -68
-70 -85 -107 -140 -107 -160 0 -29 37 -52 83 -51 119 4 291 30 438 67 300 76
569 208 859 423 113 84 383 359 486 496 l89 119 11 -79 c7 -44 19 -110 28
-149z m8263 153 c-3 -8 -6 -5 -6 6 -1 11 2 17 5 13 3 -3 4 -12 1 -19z m-23
-92 c-3 -15 -8 -25 -11 -23 -2 3 -1 17 3 31 3 15 8 25 11 23 2 -3 1 -17 -3
-31z m-64 -211 c-12 -36 -24 -65 -26 -63 -2 2 6 34 18 71 12 36 24 65 26 62 2
-2 -6 -34 -18 -70z m-22035 -153 c-3 -3 -11 0 -18 7 -9 10 -8 11 6 5 10 -3 15
-9 12 -12z m85 -32 c8 -5 11 -10 5 -10 -5 0 -17 5 -25 10 -8 5 -10 10 -5 10 6
0 17 -5 25 -10z m105 -35 c29 -8 39 -14 25 -14 -14 0 -41 7 -60 14 -46 18 -28
18 35 0z m88 -22 c-7 -2 -19 -2 -25 0 -7 3 -2 5 12 5 14 0 19 -2 13 -5z m75
-10 c-10 -2 -26 -2 -35 0 -10 3 -2 5 17 5 19 0 27 -2 18 -5z m135 -10 c-18 -2
-48 -2 -65 0 -18 2 -4 4 32 4 36 0 50 -2 33 -4z m638 -200 c13 -16 12 -17 -3
-4 -17 13 -22 21 -14 21 2 0 10 -8 17 -17z m764 -571 c-3 -3 -11 0 -18 7 -9
10 -8 11 6 5 10 -3 15 -9 12 -12z m105 -42 c8 -5 11 -10 5 -10 -5 0 -17 5 -25
10 -8 5 -10 10 -5 10 6 0 17 -5 25 -10z m120 -50 c8 -5 11 -10 5 -10 -5 0 -17
5 -25 10 -8 5 -10 10 -5 10 6 0 17 -5 25 -10z m5450 -656 c1556 -1491 2232
-2165 2370 -2362 32 -48 30 -98 -10 -179 -62 -125 -431 -468 -586 -543 -51
-25 -89 -25 -167 1 -154 51 -428 238 -775 526 -243 202 -904 793 -933 833 -10
14 -120 351 -245 750 -232 743 -242 770 -290 770 -23 0 -54 -38 -54 -66 0 -14
51 -188 114 -387 244 -771 560 -1784 765 -2447 164 -532 169 -555 131 -638
-138 -304 -1136 -643 -2270 -771 -321 -37 -472 -45 -815 -45 -358 -1 -521 9
-875 50 -896 105 -1725 345 -2076 602 -118 87 -181 193 -167 279 11 63 306
1027 623 2033 59 190 156 498 215 685 58 187 126 402 151 478 24 76 44 151 44
167 0 34 -38 65 -68 56 -48 -16 -18 74 -557 -1651 -265 -848 -362 -1160 -395
-1272 -11 -40 -24 -73 -28 -73 -15 0 -156 91 -221 143 -98 77 -119 96 -168
162 -93 122 -96 164 -24 328 58 133 235 522 316 693 30 64 55 117 55 119 0 3
203 426 355 740 275 568 684 1351 754 1444 l18 23 154 -25 c283 -48 536 -73
832 -84 l187 -6 100 -63 c507 -316 1256 -263 1676 117 46 41 60 48 111 54 246
29 669 114 883 178 63 19 131 35 150 36 33 1 74 -36 720 -655z m-484 614 l29
-33 -32 29 c-31 28 -38 36 -30 36 2 0 16 -15 33 -32z m-4885 4 c-7 -2 -18 1
-23 6 -8 8 -4 9 13 5 13 -4 18 -8 10 -11z m17210 -10 c-7 -2 -18 1 -23 6 -8 8
-4 9 13 5 13 -4 18 -8 10 -11z m-16956 -63 c14 -6 9 -7 -15 -3 -19 4 -44 11
-55 15 -14 6 -9 7 15 3 19 -4 44 -11 55 -15z m16722 -36 c-3 -10 -5 -2 -5 17
0 19 2 27 5 18 2 -10 2 -26 0 -35z m483 22 c19 -7 28 -13 20 -13 -8 0 -31 6
-50 13 -19 7 -28 13 -20 13 8 0 31 -6 50 -13z m97 -31 c-3 -3 -12 -4 -19 -1
-8 3 -5 6 6 6 11 1 17 -2 13 -5z m40 -10 c-3 -3 -12 -4 -19 -1 -8 3 -5 6 6 6
11 1 17 -2 13 -5z m336 -61 c-7 -2 -19 -2 -25 0 -7 3 -2 5 12 5 14 0 19 -2 13
-5z m90 -10 c-7 -2 -21 -2 -30 0 -10 3 -4 5 12 5 17 0 24 -2 18 -5z m-14697
-39 c-63 -43 -215 -111 -308 -138 -251 -72 -582 -75 -827 -6 -87 25 -229 78
-235 89 -3 4 115 11 262 14 285 7 688 29 917 51 77 7 160 14 185 15 l45 1 -39
-26z m13641 -51 c-3 -10 -5 -4 -5 12 0 17 2 24 5 18 2 -7 2 -21 0 -30z m-7942
-9 c33 -8 63 -18 67 -22 4 -4 -10 -93 -31 -197 -22 -105 -49 -263 -61 -351
l-23 -161 -77 33 c-91 39 -214 70 -320 79 -67 6 -78 5 -100 -13 -20 -17 -23
-24 -14 -39 8 -13 30 -20 85 -26 170 -17 283 -48 375 -102 l41 -24 6 -148 c3
-81 13 -186 21 -233 9 -47 16 -90 16 -96 0 -18 -45 -22 -138 -12 -403 42 -664
325 -663 721 1 345 213 570 571 605 93 9 167 5 245 -14z m7914 -205 c-12 -77
-24 -138 -26 -135 -3 2 5 62 16 133 12 71 22 142 22 159 2 24 2 25 6 6 3 -13
-5 -86 -18 -163z m-11584 51 c21 -22 37 -40 34 -40 -3 0 -23 18 -44 40 -21 22
-37 40 -34 40 3 0 23 -18 44 -40z m230 -220 c21 -22 37 -40 34 -40 -3 0 -23
18 -44 40 -21 22 -37 40 -34 40 3 0 23 -18 44 -40z m11280 -165 c-16 -52 -30
-93 -32 -91 -2 2 8 47 23 100 15 52 30 94 32 91 3 -2 -8 -47 -23 -100z m-59
-181 c-14 -38 -25 -64 -25 -58 -1 15 40 136 45 131 2 -2 -7 -35 -20 -73z
m-8256 -610 c0 -2 -13 2 -30 11 -16 9 -30 18 -30 21 0 2 14 -2 30 -11 17 -9
30 -18 30 -21z m107 -40 c-3 -3 -12 -4 -19 -1 -8 3 -5 6 6 6 11 1 17 -2 13 -5z
m70 -20 c-3 -3 -12 -4 -19 -1 -8 3 -5 6 6 6 11 1 17 -2 13 -5z m46 -11 c-7 -2
-19 -2 -25 0 -7 3 -2 5 12 5 14 0 19 -2 13 -5z m54 -9 c-3 -3 -12 -4 -19 -1
-8 3 -5 6 6 6 11 1 17 -2 13 -5z m-2087 -81 l75 -78 -77 75 c-72 69 -83 80
-75 80 1 0 36 -35 77 -77z m8904 36 c183 -33 402 -182 490 -333 112 -191 95
-439 -44 -650 -186 -280 -491 -388 -815 -286 -79 24 -155 59 -155 70 0 5 32
58 70 117 39 59 92 152 118 205 26 54 54 100 62 103 24 10 170 6 230 -5 30 -5
103 -27 163 -47 101 -35 108 -36 124 -20 25 24 9 46 -58 79 -80 40 -201 68
-321 75 -93 5 -108 8 -108 23 0 10 13 62 29 116 42 143 85 302 116 434 25 107
32 130 39 130 1 0 28 -5 60 -11z m641 -444 c9 -40 15 -82 12 -92 -3 -13 -5
-10 -6 8 0 14 -9 58 -20 97 -10 39 -15 69 -10 67 4 -3 15 -39 24 -80z m12
-282 c-2 -16 -4 -5 -4 22 0 28 2 40 4 28 2 -13 2 -35 0 -50z m-8871 5 l29 -33
-32 29 c-31 28 -38 36 -30 36 2 0 16 -15 33 -32z m8849 -114 c-22 -76 -28 -64
-7 14 9 35 18 59 20 53 2 -6 -4 -36 -13 -67z m-10896 -175 c10 -35 41 -136 68
-224 90 -285 259 -835 318 -1030 58 -195 69 -273 46 -325 -10 -23 -10 -22 -5
10 9 47 6 104 -7 154 -22 83 -132 452 -189 631 -15 50 -49 158 -75 240 -26 83
-60 191 -75 240 -43 132 -110 360 -110 370 0 20 12 -7 29 -66z m4806 -177 c-3
-3 -11 0 -18 7 -9 10 -8 11 6 5 10 -3 15 -9 12 -12z m60 -30 c-3 -3 -11 0 -18
7 -9 10 -8 11 6 5 10 -3 15 -9 12 -12z m4980 -142 c13 -5 14 -9 5 -9 -8 0 -24
4 -35 9 -13 5 -14 9 -5 9 8 0 24 -4 35 -9z m104 -26 c9 -8 -45 -2 -64 6 -14 7
-8 8 20 3 22 -3 42 -7 44 -9z m59 -11 c-10 -2 -26 -2 -35 0 -10 3 -2 5 17 5
19 0 27 -2 18 -5z m235 0 c-7 -2 -21 -2 -30 0 -10 3 -4 5 12 5 17 0 24 -2 18
-5z m-165 -10 c-10 -2 -26 -2 -35 0 -10 3 -2 5 17 5 19 0 27 -2 18 -5z m79 1
c-3 -3 -12 -4 -19 -1 -8 3 -5 6 6 6 11 1 17 -2 13 -5z m-7625 -132 c317 -253
346 -537 81 -799 -171 -170 -349 -170 -555 1 -62 51 -178 178 -216 235 -15 22
-15 25 14 50 17 14 69 53 115 86 114 81 316 279 400 393 38 50 73 92 78 92 6
0 43 -26 83 -58z m3030 -132 c81 -285 271 -675 439 -903 83 -113 110 -109 188
29 67 120 262 448 370 623 82 131 84 133 114 127 17 -3 32 -8 34 -9 12 -13
263 -559 354 -772 72 -170 94 -205 129 -205 25 0 199 118 344 234 136 108 393
367 494 498 46 59 87 110 92 113 5 3 69 12 143 20 73 8 188 24 256 35 68 12
127 18 131 13 5 -4 22 -55 39 -113 76 -266 127 -505 241 -1123 105 -577 146
-756 225 -987 84 -245 178 -400 316 -520 320 -279 493 -505 560 -730 25 -81
27 -231 5 -313 -65 -240 -317 -493 -651 -651 -396 -188 -893 -304 -1480 -346
-155 -11 -747 -15 -889 -5 -45 3 -164 10 -266 15 -373 21 -806 69 -1100 120
-755 134 -1415 413 -1758 744 -336 324 -398 664 -180 978 101 144 327 346 574
513 138 93 262 252 369 470 103 212 169 395 378 1060 75 237 163 504 195 595
90 252 224 567 270 638 l17 26 8 -35 c5 -19 23 -81 39 -139z m-220 135 c10 -4
4 -26 -28 -93 -64 -133 -164 -393 -248 -641 -42 -124 -78 -226 -80 -228 -7 -7
-424 -96 -691 -148 -345 -66 -438 -79 -585 -79 -254 0 -423 75 -526 235 -129
199 -182 420 -140 578 27 100 111 198 212 249 61 31 179 50 379 62 99 6 281
17 405 25 210 13 736 33 1035 38 72 2 158 4 192 5 34 1 67 0 75 -3z m515 -61
c93 -25 272 -71 398 -100 127 -30 238 -57 247 -60 14 -4 6 -23 -49 -112 -37
-59 -131 -215 -210 -347 -78 -132 -146 -247 -151 -254 -6 -11 -20 4 -57 60
-130 201 -247 444 -326 679 -53 156 -57 180 -34 180 8 0 90 -21 182 -46z
m-2907 -253 c0 -3 -5 -24 -12 -46 l-12 -40 -7 30 c-13 58 -11 74 11 68 11 -3
20 -8 20 -12z m4092 -6 c250 -40 501 -65 703 -72 105 -3 196 -9 203 -12 31
-17 -307 -371 -498 -522 -131 -104 -228 -171 -233 -162 -3 4 -48 105 -100 223
-52 118 -132 293 -176 389 -45 95 -81 175 -81 177 0 7 29 4 182 -21z m1858
-95 c6 -11 8 -20 6 -20 -3 0 -10 9 -16 20 -6 11 -8 20 -6 20 3 0 10 -9 16 -20z
m-14938 -188 c54 -36 98 -69 98 -75 0 -5 -17 -62 -37 -126 -69 -218 -49 -298
114 -458 l93 -93 -73 0 c-246 0 -455 136 -507 330 -35 129 4 388 82 542 l18
38 57 -46 c31 -25 101 -76 155 -112z m7548 118 c8 -5 11 -10 5 -10 -5 0 -17 5
-25 10 -8 5 -10 10 -5 10 6 0 17 -5 25 -10z m60 -20 c18 -12 2 -12 -25 0 -13
6 -15 9 -5 9 8 0 22 -4 30 -9z m1394 -274 c8 -27 13 -53 11 -56 -10 -15 -241
-58 -252 -46 -3 3 10 24 30 48 61 77 106 151 132 223 14 38 25 72 26 75 0 3 9
-40 19 -95 10 -55 25 -122 34 -149z m6073 -86 c644 -1117 932 -1663 963 -1829
19 -101 -30 -249 -107 -323 -48 -46 -153 -110 -175 -106 -10 2 -69 50 -133
107 -277 249 -355 469 -550 1551 -60 331 -121 631 -152 750 -30 113 -44 191
-31 170 5 -8 88 -152 185 -320z m-7 230 c6 -11 8 -20 6 -20 -3 0 -10 9 -16 20
-6 11 -8 20 -6 20 3 0 10 -9 16 -20z m65 -110 c9 -16 13 -30 11 -30 -3 0 -12
14 -21 30 -9 17 -13 30 -11 30 3 0 12 -13 21 -30z m35 -60 c6 -11 8 -20 6 -20
-3 0 -10 9 -16 20 -6 11 -8 20 -6 20 3 0 10 -9 16 -20z m-6981 -176 c14 -12
-19 -1 -35 12 -18 14 -18 14 6 3 14 -6 27 -13 29 -15z m508 10 c-3 -3 -12 -4
-19 -1 -8 3 -5 6 6 6 11 1 17 -2 13 -5z m66 -11 c-7 -2 -21 -2 -30 0 -10 3 -4
5 12 5 17 0 24 -2 18 -5z m44 1 c-3 -3 -12 -4 -19 -1 -8 3 -5 6 6 6 11 1 17
-2 13 -5z m-542 -24 c13 -5 14 -9 5 -9 -8 0 -24 4 -35 9 -13 5 -14 9 -5 9 8 0
24 -4 35 -9z m88 -17 c-13 -2 -33 -2 -45 0 -13 2 -3 4 22 4 25 0 35 -2 23 -4z
m116 3 c-2 -2 -22 -6 -44 -9 -27 -4 -35 -3 -25 3 14 9 79 15 69 6z m6831 -16
c6 -11 8 -20 6 -20 -3 0 -10 9 -16 20 -6 11 -8 20 -6 20 3 0 10 -9 16 -20z
m-5941 -176 c14 -12 -19 -1 -35 12 -18 14 -18 14 6 3 14 -6 27 -13 29 -15z
m96 -34 c13 -5 14 -9 5 -9 -8 0 -24 4 -35 9 -13 5 -14 9 -5 9 8 0 24 -4 35 -9z
m-9745 -35 c19 -19 32 -35 29 -35 -3 0 -20 16 -39 35 -19 19 -32 35 -29 35 3
0 20 -16 39 -35z m9797 19 c-3 -3 -12 -4 -19 -1 -8 3 -5 6 6 6 11 1 17 -2 13
-5z m46 -11 c-7 -2 -19 -2 -25 0 -7 3 -2 5 12 5 14 0 19 -2 13 -5z m85 -10
c-10 -2 -28 -2 -40 0 -13 2 -5 4 17 4 22 1 32 -1 23 -4z m5822 -33 c6 -11 8
-20 6 -20 -3 0 -10 9 -16 20 -6 11 -8 20 -6 20 3 0 10 -9 16 -20z m24 -46 c3
-8 2 -12 -4 -9 -6 3 -10 10 -10 16 0 14 7 11 14 -7z m-15625 -20 c14 -12 -19
-1 -35 12 -18 14 -18 14 6 3 14 -6 27 -13 29 -15z m200 -60 c9 -8 -45 -2 -64
6 -14 7 -8 8 20 3 22 -3 42 -7 44 -9z m15537 -116 c8 -16 13 -28 10 -28 -5 0
-46 69 -46 78 0 8 15 -13 36 -50z m-14578 -134 c621 -193 1403 -315 2112 -331
608 -13 1325 68 1975 222 114 27 428 115 478 134 36 14 50 14 45 -1 -7 -19
-423 -137 -687 -194 -1156 -249 -2273 -246 -3411 10 -389 88 -670 172 -670
201 0 8 5 7 158 -41z m-167 -131 c-66 -751 -116 -1283 -181 -1908 -27 -260
-74 -643 -106 -870 -31 -210 -34 -327 -10 -405 63 -213 263 -368 611 -476 253
-78 487 -109 820 -108 275 0 397 14 541 60 135 43 166 80 223 273 66 223 101
516 171 1446 59 781 103 995 225 1103 98 87 208 46 279 -103 76 -161 106 -383
171 -1275 62 -848 122 -1203 229 -1363 37 -54 170 -102 361 -129 136 -19 570
-16 720 5 253 37 447 87 613 160 130 58 210 112 295 200 80 83 121 163 139
266 13 75 8 128 -42 491 -50 356 -147 1290 -220 2100 -22 250 -44 494 -49 542
-9 88 -5 138 9 138 9 0 11 -18 35 -300 86 -1007 201 -2109 271 -2605 41 -286
41 -354 -2 -463 -25 -63 -81 -150 -128 -198 -47 -49 -188 -140 -284 -185 -297
-139 -764 -214 -1184 -189 -181 11 -258 21 -366 51 -95 25 -142 49 -180 94
-41 46 -57 78 -86 172 -73 234 -105 495 -166 1318 -32 442 -43 564 -66 750
-47 377 -124 545 -250 545 -62 0 -96 -29 -143 -120 -75 -145 -107 -370 -166
-1169 -42 -556 -58 -731 -90 -954 -38 -259 -85 -428 -145 -519 -76 -114 -312
-170 -725 -170 -764 0 -1332 236 -1446 601 -25 80 -26 184 -5 326 75 496 199
1675 286 2715 24 292 28 316 42 302 8 -8 8 -50 -1 -149z m4926 125 c-3 -7 -5
-2 -5 12 0 14 2 19 5 13 2 -7 2 -19 0 -25z m10 -115 c-3 -10 -5 -2 -5 17 0 19
2 27 5 18 2 -10 2 -26 0 -35z m28 -271 c10 -106 14 -196 11 -199 -3 -4 -6 5
-6 18 0 13 -7 92 -15 174 -15 153 -18 212 -11 204 2 -2 12 -91 21 -197z
m10020 92 c30 -59 54 -108 52 -110 -2 -2 -29 46 -61 106 -32 61 -55 110 -53
110 3 0 31 -48 62 -106z m133 -269 c-3 -3 -9 2 -12 12 -6 14 -5 15 5 6 7 -7
10 -15 7 -18z m-10131 -147 c-2 -13 -4 -5 -4 17 -1 22 1 32 4 23 2 -10 2 -28
0 -40z m10247 -89 c36 -83 49 -127 52 -173 l3 -61 -8 55 c-9 55 -36 134 -84
243 -15 32 -23 55 -18 53 4 -3 29 -55 55 -117z m-10231 -44 c4 -66 3 -77 -3
-40 -9 52 -13 141 -6 134 2 -2 6 -44 9 -94z m14 -147 c-3 -8 -6 -5 -6 6 -1 11
2 17 5 13 3 -3 4 -12 1 -19z m10273 -98 c-6 -37 -8 -40 -9 -13 -1 29 8 68 14
61 1 -2 -1 -23 -5 -48z m-10252 -130 l-1 -45 -7 55 c-5 30 -8 75 -8 100 l1 45
7 -55 c5 -30 8 -75 8 -100z m-2723 -40 c-11 -42 -13 -46 -9 -15 6 46 14 78 19
73 2 -2 -2 -28 -10 -58z m2753 -275 c0 -22 -6 12 -14 75 -7 63 -12 133 -12
155 0 22 6 -12 14 -75 7 -63 12 -133 12 -155z m10275 176 c27 -46 14 -38 -18
12 -16 23 -22 37 -14 30 8 -6 22 -25 32 -42z m-13046 -3 c-3 -7 -5 -2 -5 12 0
14 2 19 5 13 2 -7 2 -19 0 -25z m12957 -65 c98 -153 121 -279 71 -380 -14 -28
-34 -58 -44 -67 -18 -16 -20 -14 -57 45 -44 73 -118 172 -185 248 l-48 54 57
40 c31 23 79 60 107 84 27 24 51 43 53 43 1 0 22 -30 46 -67z m-12984 -98
c-10 -71 -17 -101 -14 -65 6 81 26 218 31 205 1 -6 -6 -68 -17 -140z m13123
83 c29 -50 53 -118 61 -173 4 -23 -4 -7 -17 37 -13 42 -36 99 -51 127 -32 62
-27 67 7 9z m-10316 -200 c-2 -13 -4 -3 -4 22 0 25 2 35 4 23 2 -13 2 -33 0
-45z m10 -80 c-2 -13 -4 -5 -4 17 -1 22 1 32 4 23 2 -10 2 -28 0 -40z m-2840
-20 c-3 -7 -5 -2 -5 12 0 14 2 19 5 13 2 -7 2 -19 0 -25z m13210 -30 c-3 -7
-5 -2 -5 12 0 14 2 19 5 13 2 -7 2 -19 0 -25z m-10360 -55 c-3 -10 -5 -2 -5
17 0 19 2 27 5 18 2 -10 2 -26 0 -35z m-2860 -25 c-2 -13 -4 -5 -4 17 -1 22 1
32 4 23 2 -10 2 -28 0 -40z m-10 -120 c-2 -13 -4 -3 -4 22 0 25 2 35 4 23 2
-13 2 -33 0 -45z m2906 -178 l6 -85 -14 95 c-15 106 -19 202 -5 120 4 -25 10
-83 13 -130z m10203 23 c8 -32 13 -74 13 -93 -1 -24 -5 -13 -14 35 -7 39 -16
84 -20 100 -4 17 -4 27 0 23 4 -4 14 -33 21 -65z m-13119 15 c-3 -8 -6 -5 -6
6 -1 11 2 17 5 13 3 -3 4 -12 1 -19z m-10 -145 c-2 -16 -4 -5 -4 22 0 28 2 40
4 28 2 -13 2 -35 0 -50z m2961 -203 c0 -32 -1 -31 -8 10 -4 25 -10 83 -13 130
l-6 85 14 -95 c7 -52 13 -111 13 -130z m-2971 103 c-2 -16 -4 -5 -4 22 0 28 2
40 4 28 2 -13 2 -35 0 -50z m13150 20 c-3 -10 -5 -4 -5 12 0 17 2 24 5 18 2
-7 2 -21 0 -30z m-10 -70 c-3 -10 -5 -4 -5 12 0 17 2 24 5 18 2 -7 2 -21 0
-30z m-10 -45 c-3 -8 -6 -5 -6 6 -1 11 2 17 5 13 3 -3 4 -12 1 -19z m-13140
-70 c-2 -13 -4 -5 -4 17 -1 22 1 32 4 23 2 -10 2 -28 0 -40z m3018 -198 c26
-202 28 -226 20 -219 -6 7 -55 381 -54 415 2 43 6 19 34 -196z m-3028 88 c-2
-13 -4 -3 -4 22 0 25 2 35 4 23 2 -13 2 -33 0 -45z m-10 -135 c-3 -10 -5 -2
-5 17 0 19 2 27 5 18 2 -10 2 -26 0 -35z m12963 -36 c0 -2 -17 -19 -37 -38
l-38 -34 34 38 c33 34 41 42 41 34z m-12973 -69 c-3 -7 -5 -2 -5 12 0 14 2 19
5 13 2 -7 2 -19 0 -25z m-21 -196 c-9 -66 -16 -128 -16 -138 0 -9 -3 -15 -6
-12 -3 4 3 75 13 160 10 84 19 143 21 131 2 -12 -4 -76 -12 -141z m3122 -77
c0 -16 -6 8 -14 55 -7 47 -12 99 -12 115 0 17 6 -8 14 -55 7 -47 12 -98 12
-115z m-3151 -122 c-3 -10 -5 -4 -5 12 0 17 2 24 5 18 2 -7 2 -21 0 -30z
m3140 -15 c-3 -8 -6 -5 -6 6 -1 11 2 17 5 13 3 -3 4 -12 1 -19z m-3150 -50
c-3 -7 -5 -2 -5 12 0 14 2 19 5 13 2 -7 2 -19 0 -25z m8567 -47 c171 -36 409
-73 651 -101 99 -12 184 -25 188 -30 12 -11 -159 -634 -212 -771 -14 -39 -28
-46 -166 -83 -364 -100 -564 -77 -720 84 -37 38 -40 45 -38 90 3 79 109 815
119 832 8 12 26 10 178 -21z m-8577 -13 c-3 -7 -5 -2 -5 12 0 14 2 19 5 13 2
-7 2 -19 0 -25z m-17 -88 c-7 -33 -15 -59 -17 -56 -2 2 1 32 8 65 6 34 14 59
17 57 3 -3 -1 -33 -8 -66z m9743 -27 c-7 -2 -19 -2 -25 0 -7 3 -2 5 12 5 14 0
19 -2 13 -5z m1421 -60 c11 -55 86 -610 86 -638 0 -88 -176 -200 -345 -219
-103 -12 -275 16 -482 79 l-82 25 -20 55 c-48 129 -201 659 -201 697 0 16 20
17 298 12 163 -3 365 -1 447 4 83 5 182 10 222 11 70 1 71 1 77 -26z m-11190
-17 c-3 -15 -8 -25 -11 -23 -2 3 -1 17 3 31 3 15 8 25 11 23 2 -3 1 -17 -3
-31z m11326 -174 c20 -144 26 -226 9 -142 -11 57 -39 269 -38 290 1 29 8 -6
29 -148z m-1783 126 c-3 -8 -6 -5 -6 6 -1 11 2 17 5 13 3 -3 4 -12 1 -19z
m-9567 -25 c-11 -17 -11 -17 -6 0 3 10 6 24 7 30 0 9 2 9 5 0 3 -7 0 -20 -6
-30z m9535 -100 c-43 -165 -108 -383 -112 -379 -2 2 18 82 46 177 27 96 58
205 67 242 9 37 19 66 21 63 3 -2 -7 -48 -22 -103z m-11590 -43 c271 -140 646
-228 1048 -247 81 -4 144 -11 154 -18 15 -11 15 -19 0 -99 -9 -47 -26 -110
-40 -139 -45 -100 -182 -238 -329 -334 -135 -88 -344 -167 -523 -198 -106 -19
-311 -21 -410 -5 -192 31 -342 121 -419 252 -60 102 -69 273 -22 390 56 138
209 283 404 383 78 41 85 41 137 15z m5022 -20 c106 -55 242 -158 300 -228
151 -185 160 -430 22 -601 -68 -85 -208 -158 -357 -187 -90 -18 -294 -20 -402
-4 -271 38 -534 161 -719 336 -134 126 -182 208 -201 346 -16 109 -23 104 148
111 254 11 493 47 698 107 119 34 283 97 354 135 25 13 53 24 62 25 9 0 52
-18 95 -40z m8410 -167 c-3 -10 -5 -4 -5 12 0 17 2 24 5 18 2 -7 2 -21 0 -30z
m-10230 1 c-3 -3 -12 -4 -19 -1 -8 3 -5 6 6 6 11 1 17 -2 13 -5z m120 -20 c-3
-3 -12 -4 -19 -1 -8 3 -5 6 6 6 11 1 17 -2 13 -5z m10161 -359 c0 -22 -11 32
-23 120 -13 88 -23 176 -23 195 0 19 11 -35 23 -120 13 -85 23 -173 23 -195z
m-12182 135 c-8 -36 -21 -81 -30 -100 -9 -19 -14 -26 -10 -15 9 34 33 128 39
159 3 15 8 27 10 24 2 -2 -2 -33 -9 -68z m10124 -85 c-23 -69 -44 -125 -46
-123 -2 3 15 61 38 131 23 69 44 124 46 122 2 -2 -15 -61 -38 -130z m-5877
-76 c-6 -6 -7 3 -4 23 4 28 6 29 9 9 2 -13 0 -27 -5 -32z m-18 -119 c-8 -25
-12 -34 -10 -20 3 14 9 48 13 75 5 39 8 43 10 20 1 -16 -4 -50 -13 -75z m7978
-84 c5 -67 4 -72 -3 -27 -4 30 -11 91 -13 135 -5 67 -4 72 3 27 4 -30 11 -91
13 -135z m-158 154 c-3 -5 -2 -10 3 -10 18 0 32 -61 38 -170 8 -130 2 -168
-34 -207 -44 -47 -83 -58 -212 -57 -156 1 -310 36 -444 99 -74 35 -113 89
-165 225 -19 51 -19 52 -1 47 16 -4 18 -2 10 13 -10 19 -24 21 160 -19 225
-49 399 -35 550 43 90 46 105 52 95 36z m-2855 -38 c107 -52 180 -66 320 -66
92 1 153 7 230 24 175 38 160 39 156 -12 -4 -54 -55 -163 -96 -206 -33 -35
-63 -49 -190 -92 -129 -42 -204 -55 -330 -54 -130 1 -170 13 -215 66 l-28 33
7 123 c3 67 11 145 17 171 9 45 13 49 37 47 15 -2 56 -17 92 -34z m3017 -324
c-3 -7 -5 -2 -5 12 0 14 2 19 5 13 2 -7 2 -19 0 -25z m-13907 -44 c0 -2 -9 0
-20 6 -11 6 -20 13 -20 16 0 2 9 0 20 -6 11 -6 20 -13 20 -16z m13009 -21 c19
-13 30 -23 25 -23 -11 0 -84 49 -84 56 0 6 9 1 59 -33z m71 -33 c8 -5 11 -10
5 -10 -5 0 -17 5 -25 10 -8 5 -10 10 -5 10 6 0 17 -5 25 -10z m-12885 -20 c13
-5 14 -9 5 -9 -8 0 -24 4 -35 9 -13 5 -14 9 -5 9 8 0 24 -4 35 -9z m4672 -6
c-3 -3 -12 -4 -19 -1 -8 3 -5 6 6 6 11 1 17 -2 13 -5z m-4620 -10 c-3 -3 -12
-4 -19 -1 -8 3 -5 6 6 6 11 1 17 -2 13 -5z m4676 -1 c-7 -2 -21 -2 -30 0 -10
3 -4 5 12 5 17 0 24 -2 18 -5z m60 -10 c-7 -2 -21 -2 -30 0 -10 3 -4 5 12 5
17 0 24 -2 18 -5z m5772 -11 c-3 -3 -11 0 -18 7 -9 10 -8 11 6 5 10 -3 15 -9
12 -12z m2502 2 c-3 -3 -12 -4 -19 -1 -8 3 -5 6 6 6 11 1 17 -2 13 -5z m-2462
-14 c3 -6 -1 -7 -9 -4 -18 7 -21 14 -7 14 6 0 13 -4 16 -10z m2512 4 c-3 -3
-12 -4 -19 -1 -8 3 -5 6 6 6 11 1 17 -2 13 -5z m50 -10 c-3 -3 -12 -4 -19 -1
-8 3 -5 6 6 6 11 1 17 -2 13 -5z"/>
<path d="M3008 16753 c6 -2 18 -2 25 0 6 3 1 5 -13 5 -14 0 -19 -2 -12 -5z"/>
<path d="M3058 16743 c7 -3 16 -2 19 1 4 3 -2 6 -13 5 -11 0 -14 -3 -6 -6z"/>
<path d="M3148 16723 c6 -2 18 -2 25 0 6 3 1 5 -13 5 -14 0 -19 -2 -12 -5z"/>
<path d="M3198 16713 c6 -2 18 -2 25 0 6 3 1 5 -13 5 -14 0 -19 -2 -12 -5z"/>
<path d="M3263 16703 c9 -2 23 -2 30 0 6 3 -1 5 -18 5 -16 0 -22 -2 -12 -5z"/>
<path d="M3328 16693 c6 -2 18 -2 25 0 6 3 1 5 -13 5 -14 0 -19 -2 -12 -5z"/>
<path d="M3413 16683 c9 -2 23 -2 30 0 6 3 -1 5 -18 5 -16 0 -22 -2 -12 -5z"/>
<path d="M3498 16673 c7 -3 16 -2 19 1 4 3 -2 6 -13 5 -11 0 -14 -3 -6 -6z"/>
<path d="M1965 15770 c27 -12 43 -12 25 0 -8 5 -22 9 -30 9 -10 0 -8 -3 5 -9z"/>
<path d="M2228 15713 c7 -3 16 -2 19 1 4 3 -2 6 -13 5 -11 0 -14 -3 -6 -6z"/>
<path d="M8074 12818 c-98 -67 -150 -217 -141 -413 10 -243 121 -425 257 -425
229 0 311 523 122 775 -41 55 -108 95 -158 95 -19 0 -51 -13 -80 -32z"/>
<path d="M4895 12671 c-105 -47 -169 -199 -168 -396 1 -161 42 -293 119 -383
143 -168 327 -43 363 247 29 227 -60 470 -194 532 -50 23 -70 23 -120 0z"/>
<path d="M6576 12015 c-49 -17 -91 -58 -83 -79 8 -21 33 -20 82 4 53 25 79 10
83 -49 3 -33 -2 -46 -23 -66 -23 -24 -32 -26 -93 -23 -66 3 -67 2 -67 -22 0
-20 8 -27 39 -38 24 -8 57 -10 83 -6 115 17 173 171 95 253 -34 36 -66 43
-116 26z"/>
<path d="M7116 11641 c-12 -13 -21 -47 -27 -97 -25 -229 -225 -383 -494 -384
-232 0 -437 154 -461 347 -9 65 -27 93 -63 93 -131 0 -32 -298 142 -426 134
-99 227 -129 397 -128 115 0 132 3 208 32 187 70 312 192 368 358 31 94 35
176 9 204 -23 25 -57 26 -79 1z"/>
<path d="M14728 12303 c7 -3 16 -2 19 1 4 3 -2 6 -13 5 -11 0 -14 -3 -6 -6z"/>
<path d="M14805 12280 c11 -5 27 -9 35 -9 9 0 8 4 -5 9 -11 5 -27 9 -35 9 -9
0 -8 -4 5 -9z"/>
<path d="M14908 12253 c7 -3 16 -2 19 1 4 3 -2 6 -13 5 -11 0 -14 -3 -6 -6z"/>
<path d="M13855 11890 c11 -5 27 -9 35 -9 9 0 8 4 -5 9 -11 5 -27 9 -35 9 -9
0 -8 -4 5 -9z"/>
<path d="M14521 9643 c-18 -9 -52 -39 -74 -67 -76 -96 -112 -209 -111 -351 0
-134 45 -223 123 -245 70 -19 166 49 216 157 48 101 59 151 60 268 0 99 -3
116 -26 160 -44 86 -113 115 -188 78z"/>
<path d="M17010 9081 c-208 -139 -238 -604 -42 -653 63 -17 153 51 208 157
115 219 73 506 -76 522 -38 4 -52 0 -90 -26z"/>
<path d="M15222 8800 c-26 -25 -43 -83 -35 -122 8 -39 54 -84 94 -92 50 -10
99 3 99 25 0 11 -3 19 -7 20 -5 0 -27 2 -51 4 -54 4 -82 28 -82 70 0 58 52 76
89 31 21 -25 51 -20 51 9 0 17 -11 32 -37 50 -45 30 -92 32 -121 5z"/>
<path d="M14797 8589 c-10 -6 -17 -22 -17 -42 0 -25 11 -42 56 -84 l56 -54
-25 -57 c-83 -189 -81 -438 6 -634 81 -183 219 -311 402 -374 67 -23 97 -27
185 -28 216 -1 409 94 551 270 72 90 130 227 150 354 11 72 7 237 -7 273 -9
25 -42 31 -70 12 -111 -73 -882 113 -1169 280 -23 14 -47 36 -53 49 -15 32
-42 47 -65 35z m289 -258 c275 -110 718 -211 926 -211 53 0 58 -2 64 -26 9
-36 -4 -151 -25 -226 -81 -279 -318 -462 -596 -460 -263 3 -470 175 -542 452
-26 98 -23 285 5 375 19 62 55 135 66 135 2 0 48 -18 102 -39z"/>
<path d="M8912 9433 c1335 -1319 2245 -2239 2496 -2526 52 -59 97 -106 100
-103 13 14 -119 165 -443 506 -487 514 -2620 2630 -2650 2630 -9 0 215 -228
497 -507z"/>
<path d="M4592 9708 c-109 -181 -273 -495 -239 -458 20 22 269 481 264 487 -3
2 -14 -11 -25 -29z"/>
<path d="M4041 8659 c-296 -604 -851 -1810 -962 -2091 -22 -56 -18 -80 4 -27
30 71 288 652 360 809 205 451 401 868 599 1273 99 203 177 371 174 374 -3 4
-82 -149 -175 -338z"/>
<path d="M17401 549 c-1 -21 -125 -73 -211 -90 -127 -24 -339 -13 -521 26
l-27 6 32 -63 c47 -94 65 -115 122 -143 177 -85 409 -125 526 -91 85 24 104
56 100 166 -3 83 -18 221 -21 189z"/>
<path d="M14466 512 c-3 -20 -9 -83 -13 -139 l-6 -102 34 -34 c58 -58 160 -72
316 -42 140 27 321 96 350 134 7 9 27 45 44 81 17 36 37 68 43 73 11 7 0 6
-104 -13 -202 -37 -397 -31 -538 16 -44 14 -89 34 -100 44 -19 18 -20 18 -26
-18z"/>
<path d="M1455 11200 c27 -27 51 -50 54 -50 3 0 -17 23 -44 50 -27 28 -51 50
-54 50 -3 0 17 -22 44 -50z"/>
<path d="M9035 9780 c10 -11 20 -20 23 -20 3 0 -3 9 -13 20 -10 11 -20 20 -23
20 -3 0 3 -9 13 -20z"/>
<path d="M9365 7330 c10 -11 20 -20 23 -20 3 0 -3 9 -13 20 -10 11 -20 20 -23
20 -3 0 3 -9 13 -20z"/>
</g>
</svg>
