<?xml version="1.0" standalone="no"?>
<!DOCTYPE svg PUBLIC "-//W3C//DTD SVG 20010904//EN"
 "http://www.w3.org/TR/2001/REC-SVG-20010904/DTD/svg10.dtd">
<svg version="1.0" xmlns="http://www.w3.org/2000/svg"
 width="1500.000000pt" height="1371.000000pt" viewBox="0 0 1500.000000 1371.000000"
 preserveAspectRatio="xMidYMid meet">

<g transform="translate(0.000000,1371.000000) scale(0.100000,-0.100000)"
fill="#000000" stroke="none">
<path d="M1545 13655 c-196 -36 -384 -156 -500 -319 -20 -28 -20 -28 -59 -12
-54 23 -93 21 -107 -5 -9 -18 -4 -37 30 -114 47 -107 50 -130 19 -175 -40 -58
-65 -69 -211 -94 -152 -27 -228 -57 -331 -130 -135 -96 -219 -214 -253 -353
-20 -84 -22 -260 -4 -363 56 -315 253 -642 496 -823 88 -65 330 -189 500 -256
487 -191 1192 -368 1735 -436 l125 -16 55 -62 c671 -753 917 -1036 1263 -1451
l125 -150 -103 -115 c-431 -484 -784 -1014 -1041 -1565 -262 -559 -421 -1110
-491 -1701 -25 -216 -25 -770 0 -975 97 -780 371 -1430 839 -1994 72 -87 585
-616 867 -895 113 -112 253 -241 311 -287 482 -386 1044 -660 1611 -784 668
-146 1360 -157 1994 -29 1208 242 2370 867 3309 1780 850 826 1457 1849 1717
2891 l21 88 -52 92 c-111 194 -191 334 -271 469 -38 64 -69 122 -69 128 0 6
-3 11 -7 11 -5 0 -13 10 -19 23 -19 39 -66 121 -79 137 -6 8 -22 34 -34 58
l-21 43 20 122 c35 218 49 360 65 672 7 128 -10 474 -31 635 -154 1212 -792
2183 -1818 2770 -480 275 -1047 445 -1701 512 -170 17 -717 17 -890 -1 -909
-90 -1750 -367 -2570 -846 -259 -151 -642 -414 -825 -566 l-46 -37 -99 81
c-468 382 -931 779 -1215 1041 -30 28 -135 122 -233 210 -97 87 -177 163 -177
170 0 24 -51 338 -76 461 -128 652 -329 1238 -531 1543 -68 103 -143 184 -254
277 -326 272 -684 396 -984 340z m7480 -3585 c808 -68 1489 -365 1996 -870
234 -232 385 -439 528 -720 163 -320 254 -614 308 -990 25 -181 26 -699 0
-890 -91 -671 -333 -1310 -723 -1908 -526 -805 -1295 -1481 -2169 -1907 -525
-255 -1033 -405 -1615 -477 -144 -18 -719 -17 -865 0 -323 40 -617 112 -890
219 -1397 548 -2102 1970 -1769 3568 152 726 520 1463 1045 2089 l83 99 140
-146 c78 -81 181 -183 230 -226 l88 -80 374 366 373 366 -32 41 c-17 23 -114
123 -214 223 l-182 181 102 75 c771 565 1663 910 2547 986 139 12 506 12 645
1z"/>
<path d="M8240 9134 c-663 -58 -1228 -257 -1792 -631 -71 -47 -128 -89 -128
-94 0 -10 580 -599 590 -599 3 0 57 29 118 64 421 240 913 352 1340 305 379
-41 690 -184 932 -428 159 -160 262 -328 333 -542 58 -175 72 -275 71 -514 0
-188 -3 -223 -27 -337 -132 -624 -527 -1184 -1102 -1560 -428 -281 -900 -422
-1355 -405 -444 17 -800 163 -1076 443 -320 325 -459 809 -378 1316 44 276
165 589 323 835 28 44 51 84 51 89 0 11 -598 610 -603 604 -68 -85 -133 -173
-200 -272 -554 -814 -735 -1758 -486 -2535 71 -222 176 -431 315 -623 71 -100
237 -276 345 -366 593 -494 1473 -656 2361 -433 1312 330 2423 1377 2792 2632
80 269 116 525 116 807 0 346 -52 618 -174 912 -301 721 -954 1199 -1796 1313
-111 15 -477 27 -570 19z"/>
<path d="M7815 7210 c-107 -12 -192 -37 -275 -82 -41 -23 -122 -66 -180 -96
-58 -30 -114 -63 -126 -73 -20 -19 -21 -18 -128 97 l-109 115 -28 -27 c-16
-15 -29 -33 -29 -39 0 -20 673 -680 740 -726 36 -25 66 -52 68 -61 2 -9 -11
-30 -28 -48 l-31 -32 -54 41 c-90 68 -206 179 -496 475 -230 233 -279 279
-290 268 -12 -11 4 -30 94 -113 59 -56 107 -106 107 -113 0 -7 -14 -25 -31
-42 -17 -16 -56 -66 -86 -112 -273 -408 -204 -909 154 -1121 243 -143 567
-142 872 4 128 62 219 125 325 225 522 495 469 1234 -104 1424 -64 21 -241 49
-282 45 -7 -1 -44 -5 -83 -9z"/>
</g>
</svg>
