<?xml version="1.0" standalone="no"?>
<!DOCTYPE svg PUBLIC "-//W3C//DTD SVG 20010904//EN"
 "http://www.w3.org/TR/2001/REC-SVG-20010904/DTD/svg10.dtd">
<svg version="1.0" xmlns="http://www.w3.org/2000/svg"
 width="1613.000000pt" height="1526.000000pt" viewBox="0 0 1613.000000 1526.000000"
 preserveAspectRatio="xMidYMid meet">
<metadata>
Created by potrace 1.16, written by Peter Selinger 2001-2019
</metadata>
<g transform="translate(0.000000,1526.000000) scale(0.100000,-0.100000)"
fill="#000000" stroke="none">
<path d="M5890 15249 c-30 -5 -77 -7 -105 -6 -27 2 -39 2 -25 -1 14 -2 -35
-15 -115 -28 -259 -45 -611 -146 -747 -215 -49 -25 -63 -24 -18 1 43 24 33 26
-14 3 -19 -9 -33 -19 -31 -23 2 -4 -12 -14 -31 -24 -20 -9 -32 -11 -29 -5 11
17 -82 -34 -181 -99 -144 -94 -327 -253 -318 -276 3 -7 -8 -23 -23 -36 l-28
-25 25 30 25 30 -27 -24 c-15 -13 -25 -27 -22 -32 2 -4 -14 -35 -35 -69 -22
-34 -51 -87 -63 -119 -22 -55 -23 -64 -22 -401 0 -190 -3 -298 -6 -240 l-6
105 -2 -102 c-1 -59 2 -104 8 -108 6 -3 10 -17 10 -30 0 -16 -7 -25 -26 -29
-28 -7 -1059 138 -1084 153 -9 5 -65 14 -125 21 -61 7 -150 21 -200 32 -49 10
-96 20 -102 20 -7 1 -13 11 -14 22 0 12 -3 15 -6 9 -2 -7 -17 -14 -31 -14 -27
-1 -27 -1 3 -9 52 -13 4 -11 -90 5 -105 17 -212 19 -250 5 -19 -7 -24 -7 -19
2 5 7 2 8 -7 3 -25 -14 -49 -38 -49 -48 0 -5 9 1 21 14 l20 24 -14 -25 c-30
-50 -69 -329 -88 -624 -15 -227 -6 -778 15 -976 56 -520 166 -1027 307 -1417
23 -62 37 -117 33 -124 -4 -7 -3 -9 3 -6 13 8 67 -118 57 -134 -4 -7 -3 -9 3
-6 12 8 86 -141 77 -155 -5 -7 -2 -8 6 -3 10 6 12 4 7 -9 -5 -11 -3 -15 5 -10
7 5 9 2 5 -8 -3 -9 1 -24 9 -35 14 -17 14 -16 4 5 -16 33 -3 26 15 -8 9 -17
13 -35 10 -40 -3 -5 0 -12 6 -16 8 -5 9 -3 4 6 -6 9 -4 11 4 6 7 -5 10 -15 7
-23 -3 -8 -2 -11 4 -8 11 7 33 -32 25 -45 -3 -5 0 -12 6 -16 8 -5 9 -3 4 6 -6
9 -4 11 4 6 7 -5 10 -14 7 -22 -3 -7 0 -16 6 -20 7 -5 8 -2 3 6 -6 9 -4 11 4
6 7 -5 10 -14 8 -20 -3 -7 6 -26 20 -42 l25 -29 -22 35 -22 35 26 -30 c14 -16
24 -35 22 -42 -3 -6 3 -17 12 -25 16 -12 16 -11 2 7 -15 20 -14 20 8 1 23 -20
31 -43 10 -30 -18 11 65 -87 93 -111 13 -11 8 -2 -11 20 -60 67 -68 84 -13 25
29 -30 50 -60 48 -66 -8 -27 233 -235 405 -350 115 -76 365 -215 386 -214 5 1
-11 12 -36 26 -59 33 -38 26 88 -30 298 -134 672 -223 1027 -247 89 -6 162
-15 166 -21 5 -7 8 -7 10 1 2 6 21 -29 42 -79 21 -49 35 -95 31 -101 -4 -7 -3
-9 3 -6 13 8 47 -68 38 -84 -5 -7 -4 -10 2 -6 13 8 88 -147 78 -163 -6 -9 -4
-11 5 -5 10 6 12 4 7 -9 -5 -11 -3 -15 5 -10 8 5 9 2 5 -10 -5 -11 -3 -15 5
-10 8 5 9 2 5 -10 -5 -11 -3 -15 5 -10 8 5 9 2 5 -10 -5 -11 -3 -15 5 -10 8 5
9 2 5 -10 -5 -11 -3 -15 5 -10 8 5 9 2 5 -10 -5 -11 -3 -15 5 -10 8 5 9 2 5
-10 -4 -10 -3 -15 3 -11 12 8 93 -152 84 -167 -4 -7 -3 -8 4 -4 14 8 56 -70
46 -86 -4 -7 -3 -8 4 -4 14 8 46 -50 36 -66 -4 -6 -3 -8 4 -5 12 8 76 -99 67
-113 -3 -5 0 -12 6 -16 8 -5 9 -3 4 6 -6 9 -4 11 4 6 7 -5 10 -15 7 -23 -3 -8
-2 -11 4 -8 11 7 33 -32 25 -45 -3 -5 0 -12 6 -16 8 -4 9 -3 5 4 -4 7 -5 12
-3 12 5 0 57 -77 57 -85 0 -4 -6 -3 -12 1 -8 4 -10 3 -5 -2 5 -5 14 -9 19 -9
6 0 13 -6 16 -14 3 -9 0 -11 -8 -6 -9 5 -11 4 -6 -4 4 -6 11 -9 15 -6 10 6 84
-103 77 -113 -3 -5 7 -21 20 -38 l26 -29 -22 35 -22 35 26 -30 c14 -16 24 -35
22 -42 -3 -6 3 -17 12 -25 16 -12 16 -11 2 7 -15 20 -14 20 8 1 23 -20 31 -42
10 -30 -7 4 -4 -2 6 -14 23 -26 34 -30 15 -4 -13 15 -12 16 4 3 10 -8 16 -20
13 -27 -3 -7 3 -18 12 -26 16 -12 16 -11 2 7 -15 20 -14 20 8 1 23 -20 31 -42
10 -30 -7 4 -2 -5 11 -19 30 -33 42 -36 15 -4 l-19 22 23 -19 c12 -11 21 -25
18 -32 -2 -6 10 -25 27 -40 l32 -29 -30 35 -30 35 33 -30 c18 -16 31 -34 28
-41 -2 -6 19 -33 47 -60 l52 -49 -45 50 -45 51 53 -53 c29 -29 51 -57 48 -61
-3 -5 16 -29 42 -53 l47 -44 -40 45 c-22 25 9 -5 70 -66 60 -61 157 -145 215
-188 58 -43 111 -85 118 -94 6 -9 12 -12 12 -7 0 5 -8 18 -17 29 l-17 21 21
-20 c14 -13 109 -266 288 -770 l266 -750 -96 -810 c-52 -445 -96 -817 -96
-825 -1 -8 -5 -1 -9 15 l-9 30 2 -35 c2 -62 4 -62 -196 -55 -100 4 -204 10
-232 15 -120 21 -447 32 -462 16 -5 -5 -2 -6 6 -1 9 5 12 4 7 -3 -4 -7 -33
-12 -69 -12 -89 0 -187 -16 -243 -40 -32 -13 -42 -15 -30 -5 11 8 17 15 13 15
-16 0 -64 -35 -101 -74 -22 -22 -33 -32 -25 -21 13 18 13 19 -3 6 -10 -7 -16
-17 -13 -21 3 -5 -5 -19 -17 -32 -15 -16 -18 -17 -8 -3 15 20 15 20 -7 2 -12
-11 -19 -25 -17 -32 3 -7 0 -16 -7 -21 -8 -5 -10 -3 -4 6 5 8 4 11 -3 6 -6 -4
-9 -13 -6 -20 3 -8 0 -17 -7 -22 -8 -5 -10 -3 -4 6 5 9 4 11 -4 6 -6 -4 -9
-11 -6 -16 9 -14 -15 -51 -27 -44 -7 4 -8 3 -4 -4 9 -15 -52 -135 -64 -127 -6
4 -7 -1 -3 -11 4 -12 3 -15 -5 -10 -8 5 -10 1 -5 -10 4 -12 3 -15 -5 -10 -8 5
-10 1 -5 -10 4 -12 3 -15 -5 -10 -8 5 -10 1 -5 -10 4 -12 3 -15 -5 -10 -8 5
-10 1 -5 -10 4 -12 3 -15 -5 -10 -8 5 -10 1 -5 -10 4 -12 3 -15 -5 -10 -8 5
-10 1 -5 -10 5 -13 3 -15 -7 -9 -9 6 -11 4 -5 -5 9 -15 -54 -152 -67 -144 -4
3 -5 -1 -3 -9 3 -7 -13 -54 -35 -103 -36 -78 -250 -610 -338 -839 -17 -44 -31
-74 -31 -67 -1 8 -16 12 -43 11 l-43 -2 40 -7 c22 -4 31 -8 20 -9 -18 -1 -18
-3 -3 -12 26 -14 11 -38 -29 -45 -20 -4 -119 1 -222 11 -200 18 -231 16 -313
-26 -21 -11 -38 -17 -38 -14 0 2 17 13 37 24 21 11 33 20 26 21 -45 1 -369
-283 -357 -314 2 -6 -8 -23 -23 -36 l-28 -25 25 30 25 30 -27 -24 c-15 -13
-24 -29 -22 -35 3 -7 -3 -19 -13 -27 -17 -13 -17 -13 -3 6 14 19 14 19 -2 6
-10 -7 -15 -17 -12 -22 5 -8 -73 -119 -83 -119 -3 0 1 8 8 18 13 15 12 16 -3
4 -9 -8 -15 -19 -12 -25 2 -7 -8 -25 -22 -42 l-26 -30 22 35 22 35 -26 -29
c-13 -17 -23 -33 -20 -38 3 -4 -18 -43 -47 -85 -47 -71 -84 -120 -64 -84 5 9
4 12 -3 7 -6 -4 -9 -13 -6 -20 3 -8 0 -17 -7 -22 -8 -5 -10 -3 -4 6 5 9 4 11
-4 6 -6 -4 -9 -11 -6 -16 9 -14 -55 -121 -67 -113 -7 3 -8 1 -4 -5 9 -15 -32
-95 -44 -87 -6 4 -7 -1 -3 -11 4 -12 3 -15 -5 -10 -8 5 -10 1 -5 -10 4 -12 3
-15 -5 -10 -8 5 -10 1 -5 -10 4 -12 3 -15 -5 -10 -8 5 -10 1 -5 -10 4 -12 3
-15 -5 -10 -8 5 -10 1 -5 -10 4 -12 3 -15 -5 -10 -8 5 -10 1 -5 -10 4 -12 3
-15 -5 -10 -8 5 -10 1 -5 -10 4 -12 3 -15 -5 -10 -8 4 -10 2 -6 -8 3 -8 0 -24
-6 -36 -13 -25 -30 -131 -20 -125 3 2 12 -5 19 -17 10 -16 10 -19 -1 -13 -7 4
-2 -2 11 -13 14 -11 31 -17 40 -14 10 4 12 1 6 -8 -5 -8 -4 -11 3 -7 5 4 52
-4 104 -18 417 -112 1560 -193 3428 -245 193 -5 437 -19 600 -34 385 -36 721
-61 1262 -96 442 -28 502 -30 1135 -30 854 0 1051 16 1241 101 69 31 83 31 25
0 -21 -11 -33 -20 -27 -21 12 0 87 48 124 80 14 12 20 19 13 16 -6 -4 4 19 23
51 32 53 34 63 34 143 0 214 -93 392 -409 785 -133 165 -162 194 -225 224 -33
16 -77 32 -96 36 -19 4 -39 10 -45 13 -5 3 -19 7 -30 9 -72 11 -242 32 -365
44 -138 14 -230 33 -241 51 -13 19 -11 38 4 38 6 0 4 5 -5 11 -10 5 -18 16
-18 23 0 8 -11 47 -24 87 -13 41 -45 148 -70 239 -44 157 -158 535 -212 702
-24 77 -103 252 -224 501 -105 217 -180 277 -355 283 -123 5 -213 13 -255 24
-19 5 -102 11 -185 14 -82 3 -190 12 -238 21 -49 8 -127 16 -174 16 -47 0 -97
5 -111 10 -24 9 -24 10 -7 29 14 16 15 20 4 21 -8 1 2 5 21 9 l35 7 -32 2
c-24 1 -33 6 -34 19 -1 9 -5 4 -9 -13 -7 -28 -8 -28 -9 12 -1 36 2 42 22 46
21 4 21 4 -3 6 -17 1 -21 4 -12 9 10 7 10 19 2 58 -12 54 -9 275 17 1034 l16
475 27 52 c14 29 30 50 34 46 4 -4 4 1 0 11 -6 15 -4 17 6 11 9 -5 11 -4 6 3
-4 6 0 24 9 39 9 16 14 20 11 10 -3 -11 -2 -15 4 -12 6 3 10 11 10 17 0 5 24
60 54 121 30 62 64 141 76 177 37 105 317 655 344 672 6 5 7 8 1 8 -5 0 -4 4
3 8 7 5 14 17 16 28 11 50 69 168 99 199 11 11 17 14 13 8 -4 -7 -4 -13 0 -13
10 0 182 138 284 230 138 123 645 633 642 645 -1 6 19 31 46 55 l47 45 -45
-50 -45 -50 47 44 c25 24 45 49 42 55 -2 6 24 40 58 76 l61 65 -58 -70 -57
-70 60 64 c33 36 58 70 56 76 -3 6 10 24 28 40 l33 30 -30 -35 -30 -35 32 29
c17 15 29 34 27 40 -3 7 6 21 18 32 l23 19 -20 -25 -20 -25 22 18 c12 11 20
24 17 31 -3 7 6 21 18 32 l23 19 -20 -25 -20 -25 28 24 c27 24 36 38 17 26
-19 -12 -10 12 12 31 22 19 23 19 8 -1 -15 -20 -14 -20 8 -1 23 20 30 32 12
21 -19 -12 -10 12 12 31 22 19 23 19 8 -1 -14 -18 -14 -19 2 -7 9 8 15 19 12
26 -3 7 6 21 18 32 l23 19 -20 -25 -20 -25 22 18 c12 11 19 24 17 31 -3 7 3
19 13 27 17 13 17 13 3 -6 -14 -19 -14 -19 2 -6 10 7 15 17 12 22 -4 8 163
239 173 239 3 0 -1 -8 -8 -17 -13 -16 -12 -17 3 -5 9 8 15 19 12 25 -2 7 6 23
18 37 13 14 19 19 13 10 -9 -13 -8 -13 7 -1 10 7 15 17 12 22 -5 8 52 99 62
99 3 0 2 -5 -2 -12 -4 -7 -3 -8 4 -4 6 4 9 13 6 20 -3 8 0 17 7 22 8 5 10 3 4
-6 -5 -9 -4 -11 4 -6 6 4 9 12 6 17 -9 13 21 52 42 55 10 2 61 -4 113 -12 133
-21 517 -30 677 -15 290 27 606 99 831 187 62 25 118 42 124 38 6 -4 8 -3 5 3
-3 5 33 28 79 51 47 24 82 37 78 30 -19 -31 205 112 346 221 107 82 340 309
334 325 -3 7 8 23 23 36 l28 25 -25 -30 -25 -30 27 24 c15 13 24 29 22 35 -3
7 6 21 18 32 l23 19 -20 -25 -20 -25 22 18 c12 11 20 24 17 30 -2 7 8 26 22
42 14 17 22 24 18 16 -5 -9 -3 -12 5 -7 6 4 9 11 6 16 -5 8 82 150 92 150 2 0
1 -5 -3 -12 -4 -7 -3 -8 5 -4 6 4 9 11 6 16 -9 14 15 51 27 44 7 -4 8 -3 4 4
-10 16 12 54 26 46 7 -4 8 -3 4 4 -10 16 22 74 36 66 7 -4 8 -3 4 4 -9 15 32
95 44 87 6 -4 7 1 3 11 -5 13 -3 15 7 9 8 -5 11 -4 6 3 -9 15 52 135 64 127 6
-4 7 1 3 11 -4 12 -3 15 5 10 8 -5 10 -1 5 10 -4 12 -3 15 5 10 8 -5 10 -1 5
10 -4 12 -3 15 5 10 8 -5 10 -1 5 10 -4 12 -3 15 5 10 8 -5 10 -1 5 10 -4 12
-3 15 5 10 8 -5 10 -1 5 10 -4 12 -3 15 5 10 8 -5 10 -1 5 10 -4 12 -3 15 5
10 8 -5 10 -1 5 10 -5 13 -3 15 7 9 8 -5 11 -4 6 3 -3 6 10 46 30 89 20 43 44
98 54 123 10 25 34 86 55 135 35 84 154 419 154 430 -1 21 73 305 121 465 16
52 36 138 44 190 8 52 26 160 40 240 39 225 58 463 54 679 -2 155 -6 193 -18
206 -13 12 -78 17 -380 28 -304 10 -345 13 -245 17 l120 6 -117 2 c-64 1 -119
-1 -121 -5 -3 -5 -155 -3 -339 3 -183 7 -441 15 -573 19 -158 5 -243 11 -247
19 -5 8 -8 7 -8 -2 0 -10 -5 -10 -20 -2 -22 12 -27 58 -11 89 6 10 13 47 16
82 10 111 24 182 37 191 10 6 8 8 -4 8 -10 0 -18 -5 -18 -12 0 -6 -3 -9 -6 -6
-8 9 -32 117 -25 116 3 0 17 0 30 1 l23 1 -21 18 c-11 9 -35 50 -52 91 -17 41
-41 91 -54 110 -42 65 -187 225 -249 273 -34 26 -101 82 -151 123 -159 135
-278 225 -365 279 -122 76 -369 201 -448 227 -37 12 -139 50 -227 84 -188 74
-682 229 -875 275 -74 17 -139 35 -145 38 -34 23 -215 71 -289 78 -78 7 -272
42 -351 64 -38 10 -97 22 -130 25 -33 4 -143 20 -245 37 -102 16 -196 31 -210
33 -53 7 -117 15 -171 20 -31 3 -67 8 -80 10 -13 3 -51 8 -84 11 -33 2 -82 9
-110 14 -27 6 -142 19 -255 30 -187 18 -276 20 -1030 19 -454 -1 -850 -5 -880
-10z m1180 -120 c48 -1 414 -23 639 -39 137 -9 383 -43 436 -60 43 -13 183
-30 310 -36 179 -9 783 -117 936 -168 41 -14 137 -37 214 -51 162 -31 333 -79
490 -136 61 -23 142 -50 180 -60 107 -29 159 -48 227 -81 35 -17 121 -50 192
-75 169 -58 314 -123 461 -207 395 -227 699 -498 821 -733 37 -70 41 -92 22
-112 -11 -10 -8 -12 11 -9 21 3 27 -3 37 -38 9 -30 9 -41 0 -41 -6 0 -78 -10
-161 -22 -433 -60 -952 -106 -1505 -131 -273 -13 -913 -13 -1135 0 -93 5 -260
14 -370 20 -110 6 -212 13 -225 15 -14 3 -81 8 -150 11 -69 3 -145 7 -170 9
-25 2 -75 6 -112 9 -37 3 -86 10 -110 15 -24 5 -65 9 -93 10 -47 0 -166 24
-210 41 -11 5 -33 11 -50 15 -195 39 -275 50 -436 59 -52 3 -102 8 -110 10 -8
3 -61 12 -118 21 -337 49 -1208 280 -1471 389 -76 32 -230 86 -230 81 0 -3
-191 61 -293 100 -38 14 -99 41 -137 61 -40 20 -75 32 -82 28 -7 -4 -10 -4 -6
1 11 11 -39 41 -147 87 -57 24 -101 51 -119 71 -22 26 -27 28 -22 10 4 -12 2
-24 -3 -27 -10 -6 -151 59 -151 69 0 3 32 -11 70 -30 39 -19 70 -33 70 -30 0
8 -162 87 -167 81 -7 -6 -59 20 -68 34 -7 11 42 110 82 165 52 71 134 154 147
149 6 -2 23 8 36 23 l25 28 -30 -25 -30 -25 24 27 c13 15 29 24 35 22 7 -3 19
3 27 13 13 17 13 17 -6 3 -18 -14 -19 -14 -7 2 8 9 19 15 27 12 7 -3 16 0 21
7 5 8 3 10 -6 4 -8 -5 -11 -4 -6 3 4 6 13 9 20 6 8 -3 17 0 22 7 5 8 3 10 -6
4 -8 -5 -11 -4 -6 3 4 6 13 9 20 6 8 -3 17 0 22 7 5 8 3 10 -6 4 -8 -5 -11 -4
-6 3 4 6 12 9 19 6 7 -2 21 3 32 11 19 15 19 16 -5 5 -23 -10 -24 -10 -7 4 11
8 24 13 31 10 6 -2 20 3 31 12 11 8 14 13 8 9 -22 -11 -14 4 8 16 17 9 20 8
14 -3 -3 -7 1 -4 9 6 9 11 16 16 16 10 0 -5 4 -4 8 2 23 36 335 150 463 170
16 2 42 6 58 8 47 8 148 26 256 47 55 11 139 22 187 25 153 9 340 33 418 53
28 8 359 8 790 0z m-2608 -1112 c73 -35 153 -71 178 -80 25 -9 144 -56 265
-105 450 -182 1030 -368 1520 -487 335 -82 960 -197 1350 -249 179 -24 239
-35 327 -57 20 -5 89 -12 154 -15 64 -3 128 -10 142 -15 27 -10 408 -28 632
-29 74 0 173 -5 219 -10 46 -5 175 -7 285 -4 111 2 352 6 536 8 324 4 432 8
980 42 276 17 531 40 595 54 145 33 342 62 365 55 13 -4 19 -18 22 -53 5 -66
-35 -300 -61 -352 -4 -8 -18 -73 -30 -145 -30 -179 -55 -288 -84 -367 -25 -69
-37 -114 -57 -228 -26 -146 -44 -221 -80 -330 -20 -63 -41 -131 -44 -150 -7
-35 -63 -222 -111 -372 -14 -42 -40 -111 -59 -155 -19 -43 -44 -114 -55 -158
-33 -131 -218 -581 -326 -795 -29 -58 -80 -161 -114 -230 -186 -382 -438 -826
-625 -1100 -47 -69 -116 -170 -153 -225 -61 -91 -249 -346 -336 -455 -20 -24
-34 -47 -31 -51 2 -4 -1 -11 -7 -15 -8 -5 -9 -3 -4 6 6 9 4 11 -4 6 -7 -5 -10
-14 -7 -21 2 -7 -5 -21 -17 -32 -22 -18 -22 -18 -7 2 8 12 -3 1 -25 -24 -345
-392 -632 -689 -810 -839 -60 -51 -138 -117 -172 -147 -38 -34 -76 -58 -100
-64 -32 -8 -21 -18 12 -11 5 1 6 -2 2 -6 -4 -5 -25 -7 -45 -6 -28 1 -32 0 -17
-7 11 -5 25 -6 30 -3 6 3 2 -4 -9 -16 -10 -12 -23 -19 -27 -16 -9 5 -58 -28
-62 -42 -3 -11 -111 -15 -292 -13 -22 1 -60 0 -85 -1 -79 -2 -335 12 -345 20
-9 7 -261 31 -365 35 -25 1 -47 3 -50 4 -3 1 -36 4 -73 6 -38 3 -74 8 -80 12
-16 10 -166 32 -189 28 -10 -2 -18 1 -18 7 0 6 -8 8 -18 6 -10 -3 -23 1 -30 9
-17 17 -33 17 -26 -1 4 -10 0 -13 -13 -10 -10 2 -88 18 -173 35 -147 29 -226
58 -246 91 -4 7 6 3 22 -8 39 -28 54 -36 54 -31 0 10 -81 57 -89 52 -5 -2 -15
3 -22 13 -13 16 -13 16 6 2 19 -14 19 -14 6 3 -8 10 -20 16 -28 13 -16 -7
-303 271 -423 410 -209 242 -565 762 -544 795 4 8 3 9 -4 5 -14 -8 -46 50 -36
66 4 7 3 8 -4 4 -14 -8 -56 70 -46 86 5 7 3 8 -6 3 -10 -6 -12 -4 -7 9 4 10 3
15 -3 11 -12 -8 -213 393 -206 412 3 8 2 12 -3 9 -5 -3 -32 47 -60 111 -39 88
-49 119 -40 127 9 8 10 7 4 -3 -5 -9 -4 -12 3 -7 9 5 9 13 0 29 -7 12 -11 25
-10 30 1 4 -2 7 -7 7 -5 0 -13 9 -16 21 -4 11 -9 18 -12 16 -2 -3 1 -15 7 -27
6 -12 9 -24 7 -26 -6 -6 -61 131 -122 301 -23 66 -60 164 -81 218 -44 114 -41
129 27 138 l44 6 -50 3 -50 3 40 7 40 7 -42 2 c-23 0 -44 7 -47 14 -4 6 -4 1
-2 -12 13 -64 -16 10 -58 149 -227 770 -381 1658 -460 2665 -19 234 -27 420
-17 350 7 -47 8 -48 9 -12 2 31 6 37 25 38 20 1 21 1 2 7 -23 8 -27 21 -27 77
0 22 -6 94 -15 160 -24 196 -32 318 -22 338 6 9 22 18 37 18 l27 2 -27 4 -28
4 -2 217 -2 217 -6 -225 -6 -225 -2 263 c-1 144 0 262 2 262 2 0 64 -28 138
-63z m-2012 -373 c52 -9 106 -16 120 -16 45 -1 327 -44 445 -68 28 -6 109 -19
180 -30 72 -11 162 -26 200 -34 39 -8 99 -17 135 -20 141 -10 268 -26 330 -40
36 -8 102 -20 148 -27 46 -6 90 -18 98 -26 8 -9 14 -35 15 -66 0 -29 2 -107 4
-174 2 -70 0 -125 -6 -128 -5 -4 -8 -18 -8 -33 l1 -27 8 30 8 30 1 -30 c1 -16
3 -55 6 -85 3 -41 2 -47 -4 -25 -7 25 -9 26 -10 8 0 -13 -7 -23 -13 -23 -7 0
-276 34 -597 76 -771 102 -726 112 -741 -162 -11 -199 -11 -425 0 -529 16
-151 80 -606 99 -703 11 -53 28 -124 39 -157 11 -33 30 -107 42 -165 45 -214
142 -484 255 -711 64 -128 208 -343 272 -406 73 -72 207 -183 278 -230 90 -59
395 -197 519 -235 58 -17 241 -38 338 -38 l97 0 16 -30 c31 -60 96 -261 99
-305 1 -24 6 -48 10 -52 5 -5 6 3 2 17 -6 28 15 -16 44 -91 22 -55 32 -53
-140 -33 -261 30 -532 99 -770 194 -106 42 -229 103 -225 110 3 4 -2 11 -11
14 -9 3 -12 2 -9 -5 4 -6 -16 1 -44 15 -28 15 -51 29 -51 31 0 3 18 -4 40 -15
65 -33 46 -15 -26 24 -36 20 -69 34 -74 31 -5 -3 -12 0 -16 6 -4 8 -3 9 4 5 7
-4 12 -5 12 -3 0 2 -26 21 -57 42 -32 21 -84 58 -116 82 -31 24 -61 42 -65 39
-5 -3 -22 9 -38 27 l-29 32 35 -30 35 -30 -30 33 c-16 18 -35 30 -41 28 -18
-7 -226 211 -314 328 -120 160 -257 402 -246 433 3 8 2 12 -3 9 -18 -11 -132
298 -209 564 -239 824 -313 1763 -196 2488 20 118 6 110 154 86z m621 -808 c5
3 6 10 3 16 -4 6 1 8 12 5 11 -3 251 -36 534 -74 330 -43 504 -70 485 -74
l-30 -7 28 -1 c24 -1 27 -5 29 -38 1 -34 2 -33 7 12 4 37 11 -8 24 -175 85
-1035 227 -1828 487 -2701 7 -24 6 -26 -14 -21 -20 5 -20 4 3 -22 l24 -26 -47
0 c-110 0 -368 71 -511 141 -203 99 -470 341 -610 554 -43 65 -89 143 -102
174 -61 135 -87 203 -118 301 -18 58 -45 139 -58 180 -14 41 -34 111 -45 155
-11 44 -35 141 -55 215 -54 206 -89 424 -93 584 -3 76 -8 146 -13 155 -25 48
-29 521 -5 638 4 24 47 36 52 15 2 -7 8 -10 13 -6z m9264 -86 l-80 -6 83 -2
c45 -1 82 2 82 6 0 15 223 13 305 -3 63 -12 117 -14 260 -10 118 4 202 3 245
-5 37 -7 211 -13 409 -15 189 -2 347 -7 352 -12 4 -4 10 -78 13 -163 4 -134 2
-174 -19 -295 -13 -77 -29 -184 -35 -238 -5 -54 -14 -106 -19 -116 -8 -15 -57
-266 -75 -386 -20 -130 -68 -309 -102 -374 -8 -14 -14 -34 -14 -43 0 -41 -78
-268 -150 -438 -43 -102 -90 -215 -104 -252 -42 -109 -109 -247 -158 -328 -25
-41 -62 -108 -82 -148 -45 -89 -183 -295 -268 -399 -81 -100 -198 -217 -319
-320 -309 -263 -725 -427 -1234 -489 -241 -28 -738 -18 -781 17 -6 5 -14 5
-19 1 -4 -4 0 5 10 21 9 15 19 27 22 27 2 0 1 -5 -3 -12 -4 -7 -3 -8 5 -4 6 4
9 12 6 17 -7 11 113 205 125 202 5 -2 7 3 4 11 -3 8 0 17 7 22 8 5 10 3 4 -6
-5 -8 -4 -11 3 -6 6 4 9 12 6 19 -2 7 3 21 12 32 8 11 12 14 8 6 -5 -9 -3 -12
5 -7 6 4 9 11 6 16 -6 10 19 65 35 75 5 3 40 0 77 -7 55 -10 63 -14 43 -20
-14 -4 76 -6 200 -3 171 3 245 8 310 23 107 24 263 65 270 72 3 3 17 6 31 7
38 2 147 47 242 100 88 49 217 141 217 156 0 4 6 5 13 1 9 -6 9 -5 0 8 -11 12
-9 18 10 34 l22 19 -20 -24 c-20 -23 -20 -23 0 -20 11 2 26 10 35 16 8 7 23
18 33 26 18 12 17 13 -2 13 -11 0 -17 -5 -14 -10 4 -5 1 -6 -7 -1 -9 6 -11 4
-5 -5 6 -9 4 -11 -4 -5 -9 5 22 42 96 119 61 61 129 137 153 169 23 31 45 57
47 57 3 0 -1 -8 -8 -17 -13 -16 -12 -17 3 -4 10 7 15 17 13 22 -5 8 62 119 72
119 2 0 1 -5 -3 -12 -4 -7 -3 -8 5 -4 6 4 9 11 6 16 -9 14 15 51 27 44 7 -4 8
-3 4 4 -10 16 12 54 26 46 7 -4 8 -3 4 4 -10 16 22 74 36 66 7 -4 8 -3 4 4 -8
13 175 383 186 376 4 -3 5 2 2 10 -3 8 3 31 14 53 77 152 216 544 292 824 79
290 139 630 127 721 -4 27 -2 36 6 32 7 -3 -1 6 -16 20 -15 14 -33 26 -40 26
-7 -1 0 -8 16 -16 38 -21 34 -25 -10 -9 -26 9 -216 22 -618 40 -616 27 -637
29 -654 39 -16 11 -13 67 9 159 33 139 49 210 56 252 13 75 13 75 127 73 l102
-2 -80 -6z m-202 -659 c21 0 21 1 2 8 -11 5 20 6 70 4 50 -3 293 -15 540 -27
l450 -21 4 -30 4 -30 8 30 c5 18 6 5 3 -35 -15 -174 -111 -589 -200 -862 -88
-271 -200 -552 -215 -542 -5 3 -6 -1 -3 -9 8 -21 -144 -320 -158 -311 -7 4 -8
3 -4 -5 7 -11 -97 -201 -110 -201 -3 0 -2 5 2 12 4 7 3 8 -5 4 -6 -4 -9 -11
-6 -16 8 -13 -14 -52 -25 -45 -5 3 -12 0 -16 -6 -4 -8 -3 -9 4 -5 18 11 14
-10 -5 -25 -14 -12 -16 -12 -8 0 5 9 4 12 -3 7 -6 -4 -9 -12 -7 -19 11 -29
-292 -376 -316 -362 -4 3 -43 -20 -86 -51 -43 -31 -95 -65 -115 -75 -21 -11
-38 -22 -38 -24 0 -3 14 1 30 10 17 9 30 13 30 10 0 -13 -230 -116 -312 -139
-125 -36 -286 -58 -410 -55 -60 1 -108 6 -108 10 0 5 -7 6 -15 3 -9 -4 -41 -3
-73 1 -45 6 -52 9 -32 15 24 6 24 6 3 12 -12 3 -27 1 -33 -6 -10 -9 -10 -6 -1
12 7 12 17 20 23 16 7 -4 8 -3 4 4 -8 14 118 245 128 235 4 -4 4 1 0 11 -5 13
-4 17 3 13 6 -4 10 -1 10 6 -1 6 31 77 70 157 39 80 74 156 78 170 4 14 29 68
55 120 49 95 100 212 144 331 13 35 53 130 89 210 58 130 153 395 202 564 10
33 28 87 40 120 12 33 34 103 49 155 15 52 38 127 51 165 33 100 60 192 96
332 23 88 39 130 57 150 16 18 27 23 30 15 2 -6 13 -12 25 -11z m-5340 -5398
c3 9 1 18 -6 21 -7 3 -3 4 8 1 128 -27 264 -44 332 -41 49 3 62 2 33 -2 -37
-6 -12 -11 149 -30 291 -35 485 -50 816 -62 345 -13 348 -14 337 -38 -5 -9
-50 -100 -100 -202 -50 -102 -105 -219 -121 -260 -52 -132 -386 -799 -376
-750 3 14 2 19 -1 13 -3 -7 -13 -13 -22 -14 -11 0 -12 -2 -4 -6 21 -8 13 -31
-13 -37 -14 -4 -73 5 -132 18 -60 14 -129 26 -155 27 -27 2 -48 6 -48 11 0 4
-12 8 -27 7 l-28 -1 25 -8 c35 -11 16 -11 -65 0 -126 17 -140 21 -124 31 12 7
11 9 -3 9 -9 0 -19 6 -22 13 -3 6 -3 1 0 -13 14 -68 -31 54 -246 660 -256 721
-247 695 -227 661 11 -19 15 -20 20 -8z m466 -1520 c1 32 -5 32 160 11 298
-36 365 -45 371 -49 16 -10 19 -84 9 -214 -5 -75 -10 -305 -10 -511 0 -367
-11 -668 -24 -702 -4 -10 -21 -22 -39 -27 l-31 -9 30 -3 c25 -2 22 -3 -15 -9
l-45 -7 43 -1 c42 -2 43 -3 42 -34 -3 -55 3 -56 10 -3 l7 50 -1 -58 c-1 -31
-7 -62 -13 -68 -6 -6 -28 -11 -49 -11 -67 0 -598 48 -616 56 -9 4 -19 20 -23
35 -3 15 35 371 85 792 49 421 91 774 91 785 1 10 5 3 9 -16 7 -31 7 -32 9 -7z
m-979 -1673 c349 -12 791 -38 840 -50 19 -5 112 -14 205 -20 94 -6 179 -15
190 -20 35 -15 227 -30 435 -34 85 -2 180 -8 210 -14 88 -18 445 -50 574 -52
220 -2 262 -23 343 -170 147 -269 152 -282 325 -750 64 -173 120 -353 157
-505 40 -162 43 -185 28 -186 -6 0 -3 -4 9 -9 21 -8 29 -31 41 -109 l5 -33
-79 6 c-43 4 -116 9 -163 11 -47 2 -143 10 -215 17 -71 6 -145 12 -163 12 -18
0 -28 3 -22 6 15 9 -139 20 -220 15 -48 -3 -56 -2 -30 4 23 5 -23 8 -131 9
-91 1 -177 6 -191 11 -15 5 -117 12 -227 16 -110 3 -211 9 -225 15 -14 5 -103
9 -198 10 -95 0 -198 4 -228 9 -30 6 -206 13 -390 16 -184 3 -427 10 -540 15
-113 5 -279 12 -370 15 -91 4 -187 11 -215 16 -27 5 -131 9 -230 10 -219 1
-832 26 -846 34 -18 12 1 22 62 34 33 7 59 14 57 16 -2 2 -31 5 -65 6 l-61 2
23 61 c77 202 177 456 275 696 61 151 114 281 117 287 3 7 10 10 16 6 6 -4 7
-1 2 7 -9 14 44 132 57 124 4 -3 5 1 2 9 -7 19 44 120 56 112 6 -4 7 1 3 11
-5 13 -3 15 7 9 9 -5 11 -4 6 3 -10 16 32 94 46 86 7 -4 8 -3 4 4 -9 15 12 54
24 47 6 -3 8 0 5 7 -2 7 20 48 51 91 53 74 56 77 97 78 81 2 160 9 165 14 7 7
30 6 372 -5z m-1934 -1789 c-4 -5 67 -9 167 -10 94 0 190 -3 212 -6 35 -5 366
-15 950 -31 94 -2 197 -8 230 -13 33 -5 137 -9 230 -10 94 0 289 -12 435 -25
197 -18 300 -23 400 -19 247 10 1993 -99 2540 -158 102 -11 205 -22 230 -25
617 -64 693 -81 798 -178 18 -17 40 -45 48 -61 8 -17 27 -44 42 -61 121 -133
317 -383 366 -466 36 -62 72 -162 85 -241 15 -88 3 -133 -43 -153 -24 -10 -27
-14 -11 -15 17 -1 16 -2 -5 -9 l-25 -8 28 -1 c15 -1 27 4 27 11 0 6 3 9 6 6 3
-4 -2 -19 -11 -35 -9 -15 -14 -19 -10 -9 5 16 3 17 -10 6 -8 -7 -12 -16 -10
-21 14 -22 -202 -61 -439 -79 -167 -13 -751 -13 -1082 0 -573 23 -1383 77
-1999 134 -170 16 -367 27 -570 31 -170 3 -546 15 -835 25 -1059 40 -1503 69
-2010 131 -358 43 -569 89 -607 131 -16 18 -16 22 1 71 35 101 105 239 117
231 8 -4 9 -3 5 4 -10 16 32 94 46 86 7 -4 8 -3 4 4 -9 16 43 104 56 95 7 -3
8 -1 4 5 -12 19 193 311 325 461 68 79 142 158 114 122 -17 -21 -13 -20 22 8
24 18 46 38 50 44 3 7 -3 3 -15 -7 -32 -27 -27 -14 5 15 14 13 24 19 20 14 -3
-7 14 -10 46 -8 69 3 71 5 12 13 l-50 7 58 1 c32 1 56 -2 53 -7z"/>
</g>
</svg>
