<svg xmlns="http://www.w3.org/2000/svg" xmlns:xlink="http://www.w3.org/1999/xlink" width="674" height="674" viewBox="0 0 674 674">
  <defs>
    <clipPath id="clip-Plan_de_travail_1">
      <rect width="674" height="674"/>
    </clipPath>
  </defs>
  <g id="Plan_de_travail_1" data-name="Plan de travail – 1" clip-path="url(#clip-Plan_de_travail_1)">
    <ellipse id="Ellipse_13" data-name="Ellipse 13" cx="171.5" cy="175.5" rx="171.5" ry="175.5" transform="translate(168 180)" fill="#336ff0"/>
    <ellipse id="Ellipse_15" data-name="Ellipse 15" cx="107" cy="109.5" rx="107" ry="109.5" transform="translate(336 174)" fill="#fcb659"/>
    <ellipse id="Ellipse_17" data-name="Ellipse 17" cx="94" cy="96" rx="94" ry="96" transform="translate(340 325)" fill="#ff747c"/>
    <ellipse id="Ellipse_14" data-name="Ellipse 14" cx="137" cy="140" rx="137" ry="140" transform="translate(147 180)" fill="#8246ca"/>
    <circle id="Ellipse_18" data-name="Ellipse 18" cx="14.5" cy="14.5" r="14.5" transform="translate(92 378)" fill="#915ccd"/>
    <circle id="Ellipse_21" data-name="Ellipse 21" cx="21.5" cy="21.5" r="21.5" transform="translate(147 510)" fill="#fcbe6a"/>
    <circle id="Ellipse_20" data-name="Ellipse 20" cx="36" cy="36" r="36" transform="translate(583 299)" fill="#4c7fee"/>
    <circle id="Ellipse_16" data-name="Ellipse 16" cx="28.5" cy="28.5" r="28.5" transform="translate(349 75)" fill="#ff8489"/>
    <circle id="Ellipse_19" data-name="Ellipse 19" cx="14.5" cy="14.5" r="14.5" transform="translate(562 407)" fill="#ff8489"/>
    <g id="Groupe_2" data-name="Groupe 2" transform="translate(148.993 -21.436)">
      <g id="Ellipse_10" data-name="Ellipse 10" transform="translate(166.306 217.88)" fill="none" stroke="#fff8e5" stroke-width="10">
        <ellipse cx="24.097" cy="23.454" rx="24.097" ry="23.454" stroke="none"/>
        <ellipse cx="24.097" cy="23.454" rx="19.097" ry="18.454" fill="none"/>
      </g>
      <g id="Ellipse_11" data-name="Ellipse 11" transform="translate(241.702 234.298)" fill="none" stroke="#fff8e5" stroke-width="10">
        <ellipse cx="25.83" cy="24.894" rx="25.83" ry="24.894" stroke="none"/>
        <ellipse cx="25.83" cy="24.894" rx="20.83" ry="19.894" fill="none"/>
      </g>
      <g id="Ellipse_12" data-name="Ellipse 12" transform="translate(96.34 282.632)" fill="none" stroke="#fff8e5" stroke-width="10">
        <ellipse cx="20.544" cy="19.997" rx="20.544" ry="19.997" stroke="none"/>
        <ellipse cx="20.544" cy="19.997" rx="15.544" ry="14.997" fill="none"/>
      </g>
      <path id="Tracé_1" data-name="Tracé 1" d="M2437.444,891.486c-12.215,35.05-36.856,27.748-54.115,29.82s-18.986,13.808-18.986,13.808l-3.8,69.729s-1.7,11.71,9.187,12.082,10.622-12.082,10.622-12.082l1.248-51.487v110.861s.08,8.63,8.577,8.63,9.028-8.63,9.028-8.63l1.858-47.292,1.939,47.292s-.611,8.364,9.214,8.63,9.559-8.63,9.559-8.63V953.355s10.083-9.041,11.949-22.836S2437.444,891.486,2437.444,891.486Z" transform="translate(-2284 -594.777)" fill="none" stroke="#fff8e5" stroke-width="10"/>
      <path id="Tracé_2" data-name="Tracé 2" d="M2537.259,889.263l6.9,174.19s.8,7.169,8.231,7.435,9.559-7.435,9.559-7.435l8.232-94.8,5.311,93.2s.531,9.294,7.966,9.028,7.435-9.028,7.435-9.028l12.746-175.252" transform="translate(-2383.815 -592.023)" fill="none" stroke="#fff8e5" stroke-width="10"/>
      <path id="Tracé_3" data-name="Tracé 3" d="M2688.737,876.164c37.379-8.783,33.554-9.069,54.475-9.069s26.288,4.514,29.209,9.069,0,77.761,0,77.761a8.821,8.821,0,0,1-8.763,7.169c-7.7.266-8.5-7.169-8.5-7.169V888.072l-3.452,159.32s-1.593,8.231-8.5,7.7-8.763-7.7-8.763-7.7l-4.779-78.6-4.514,77.536s-1.859,7.435-8.5,7.435-8.232-7.435-8.232-7.435l-3.186-154.01-18.587,3.983" transform="translate(-2468.154 -581.008)" fill="none" stroke="#fff8e5" stroke-width="10"/>
      <path id="Tracé_4" data-name="Tracé 4" d="M2461.648,838.524s24.417-25.093,54.743-27.881,66.561,16.729,66.561,16.729" transform="translate(-2333.13 -541.815)" fill="none" stroke="#fff8e5" stroke-width="10"/>
    </g>
  </g>
</svg>
